<?xml version="1.0" encoding="UTF-8" standalone="no"?>
<svg
   xmlns:dc="http://purl.org/dc/elements/1.1/"
   xmlns:cc="http://creativecommons.org/ns#"
   xmlns:rdf="http://www.w3.org/1999/02/22-rdf-syntax-ns#"
   xmlns:svg="http://www.w3.org/2000/svg"
   xmlns="http://www.w3.org/2000/svg"
   xmlns:sodipodi="http://sodipodi.sourceforge.net/DTD/sodipodi-0.dtd"
   xmlns:inkscape="http://www.inkscape.org/namespaces/inkscape"
   version="1.1"
   x="0px"
   y="0px"
   viewBox="0 0 20 20"
   enable-background="new 0 0 1000 1000"
   xml:space="preserve"
   id="svg2"
   inkscape:version="0.91 r13725"
   sodipodi:docname="app.svg"
   width="20"
   height="20"><defs
     id="defs12" /><sodipodi:namedview
     pagecolor="#ffffff"
     bordercolor="#666666"
     borderopacity="1"
     objecttolerance="10"
     gridtolerance="10"
     guidetolerance="10"
     inkscape:pageopacity="0"
     inkscape:pageshadow="2"
     inkscape:window-width="1366"
     inkscape:window-height="663"
     id="namedview10"
     showgrid="false"
     inkscape:zoom="29.039523"
     inkscape:cx="22.291009"
     inkscape:cy="12.130396"
     inkscape:window-x="-8"
     inkscape:window-y="-8"
     inkscape:window-maximized="1"
     inkscape:current-layer="svg2" /><metadata
     id="metadata4"> Svg Vector Icons : http://www.onlinewebfonts.com/icon <rdf:RDF><cc:Work
     rdf:about=""><dc:format>image/svg+xml</dc:format><dc:type
       rdf:resource="http://purl.org/dc/dcmitype/StillImage" /><dc:title></dc:title></cc:Work></rdf:RDF></metadata><g
     id="g6"
     transform="matrix(0.01853371,0,0,0.01955174,0.62612668,0.23021398)"
     style="fill:#5e5e5e;fill-opacity:1"><path
       d="m 10,599.5 0,-133 c 0,-12.2 10,-22.1 22.3,-22.1 l 235,0 -102.4,177.3 -132.6,0 C 20,621.7 10,611.7 10,599.5 l 0,0 z m 167.4,272.3 -75,50.8 c -10.1,6.9 -17.2,2.5 -15.8,-9.6 l 10,-86.9 C 98,814 107.8,809 118.4,815.1 l 58,33.2 c 10.7,6 11.1,16.7 1,23.5 l 0,0 z m 18,-49 -58,-33.2 C 126.8,783.5 123,769.9 129.2,759.4 L 397.9,293.5 c 6.1,-10.6 19.8,-14.3 30.4,-8.2 l 58,33.1 c 10.6,6.1 14.3,19.7 8.2,30.3 l -268.6,466 c -6.1,10.5 -19.9,14.2 -30.5,8.1 l 0,0 z m 204.5,-201.1 102.3,-177.3 58.9,0 83.1,177.3 -244.3,0 0,0 z m 333.3,52.9 C 710,663 594.2,397.2 564.6,327.8 534.9,258.4 445.3,73.8 474.3,59.5 494.9,49.2 569,194.6 624.5,281.8 c 55.4,87.3 171.3,312.3 185.6,337.9 14.2,25.7 -13.7,47.1 -29.1,53.5 -15.6,6.5 -24.6,12.9 -47.8,1.4 l 0,0 z m 76,122.2 -35,-55 c -7.2,-11.4 -3.5,-25.5 8.3,-31.6 l 33.3,-17.1 c 11.8,-6 26.5,-1.1 32.7,10.8 l 27.6,52.8 c 6.3,12 2,27.3 -9.3,34 L 843,805 c -11.3,6.8 -26.6,3.1 -33.8,-8.2 l 0,0 z M 937.9,941 c -7.3,-23.3 -63.1,-24.8 -88,-59.9 -25.1,-35 -4.3,-53 4.3,-61.3 C 955.5,763 937.9,941 937.9,941 l 0,0 z M 990,599.5 c 0,12.2 -10,22.2 -22.3,22.2 l -117.6,0 c -1.3,-6.8 -3.4,-13.7 -7,-20.1 C 840,596.1 832.3,581.4 821.5,560.9 805.9,531.3 783.6,489 759.6,444.4 l 208,0 c 12.3,0 22.3,10 22.3,22.2 l 0.1,132.9 0,0 0,0 z"
       id="path8"
       inkscape:connector-curvature="0"
       style="fill:#5e5e5e;fill-opacity:1" /></g></svg>