<?xml version="1.0" encoding="UTF-8" standalone="no"?>
<svg
   xmlns:dc="http://purl.org/dc/elements/1.1/"
   xmlns:cc="http://creativecommons.org/ns#"
   xmlns:rdf="http://www.w3.org/1999/02/22-rdf-syntax-ns#"
   xmlns:svg="http://www.w3.org/2000/svg"
   xmlns="http://www.w3.org/2000/svg"
   xmlns:sodipodi="http://sodipodi.sourceforge.net/DTD/sodipodi-0.dtd"
   xmlns:inkscape="http://www.inkscape.org/namespaces/inkscape"
   version="1.1"
   x="0px"
   y="0px"
   viewBox="0 0 1000 1000"
   enable-background="new 0 0 1000 1000"
   xml:space="preserve"
   id="svg2"
   inkscape:version="0.91 r13725"
   sodipodi:docname="app3.svg"><defs
     id="defs12" /><sodipodi:namedview
     pagecolor="#ffffff"
     bordercolor="#666666"
     borderopacity="1"
     objecttolerance="10"
     gridtolerance="10"
     guidetolerance="10"
     inkscape:pageopacity="0"
     inkscape:pageshadow="2"
     inkscape:window-width="686"
     inkscape:window-height="480"
     id="namedview10"
     showgrid="false"
     inkscape:zoom="0.236"
     inkscape:cx="500"
     inkscape:cy="500"
     inkscape:window-x="0"
     inkscape:window-y="0"
     inkscape:window-maximized="0"
     inkscape:current-layer="svg2" /><metadata
     id="metadata4"> Svg Vector Icons : http://www.onlinewebfonts.com/icon <rdf:RDF><cc:Work
     rdf:about=""><dc:format>image/svg+xml</dc:format><dc:type
       rdf:resource="http://purl.org/dc/dcmitype/StillImage" /></cc:Work></rdf:RDF></metadata><g
     id="g6"
     style="fill:#666666"><path
       d="M161.8,330.2l-79.2,79.2L393.2,531l75.7-90.1L161.8,330.2L161.8,330.2z M535.5,191.7v211.4l282.7-105.5L535.5,191.7L535.5,191.7z M522.3,398.4l-146-52.6l-144.3-52l290.3-100.4V398.4L522.3,398.4z M911.1,270.4l78.9,81.3l-10,37.7l-32.7,9.2L936,360.5l-6.7-2.2v52.9l-2.3,281.5L564.6,871.6l-40.5-17.3L141.9,691.1l-17.7-7.5v-19.2l0.5-176.1L20,447.3l-10-47.6l123.6-123.6l13-13L521.8,132l10-3.6l10.1,3.8L911.1,270.4L911.1,270.4z M182.7,511l208.8,81.8l19.4,7.6l13.4-16l82-97.7v297L182.3,645.2L182.7,511z"
       id="path8"
       style="fill:#666666" /></g></svg>