<?xml version="1.0" encoding="UTF-8" standalone="no"?>
<svg
   xmlns:dc="http://purl.org/dc/elements/1.1/"
   xmlns:cc="http://creativecommons.org/ns#"
   xmlns:rdf="http://www.w3.org/1999/02/22-rdf-syntax-ns#"
   xmlns:svg="http://www.w3.org/2000/svg"
   xmlns="http://www.w3.org/2000/svg"
   xmlns:sodipodi="http://sodipodi.sourceforge.net/DTD/sodipodi-0.dtd"
   xmlns:inkscape="http://www.inkscape.org/namespaces/inkscape"
   version="1.1"
   x="0px"
   y="0px"
   viewBox="0 0 1000 1000"
   enable-background="new 0 0 1000 1000"
   xml:space="preserve"
   id="svg2"
   inkscape:version="0.91 r13725"
   sodipodi:docname="cpu2.svg"><defs
     id="defs24" /><sodipodi:namedview
     pagecolor="#ffffff"
     bordercolor="#666666"
     borderopacity="1"
     objecttolerance="10"
     gridtolerance="10"
     guidetolerance="10"
     inkscape:pageopacity="0"
     inkscape:pageshadow="2"
     inkscape:window-width="686"
     inkscape:window-height="480"
     id="namedview22"
     showgrid="false"
     inkscape:zoom="0.236"
     inkscape:cx="500"
     inkscape:cy="500"
     inkscape:window-x="0"
     inkscape:window-y="0"
     inkscape:window-maximized="0"
     inkscape:current-layer="svg2" /><metadata
     id="metadata4"> Svg Vector Icons : http://www.onlinewebfonts.com/icon <rdf:RDF><cc:Work
     rdf:about=""><dc:format>image/svg+xml</dc:format><dc:type
       rdf:resource="http://purl.org/dc/dcmitype/StillImage" /></cc:Work></rdf:RDF></metadata><g
     id="g6"
     style="fill:#666666"><g
       transform="translate(0.000000,512.000000) scale(0.100000,-0.100000)"
       id="g8"
       style="fill:#666666"><path
         d="M771.9,4989.4c-225.9-61.2-453.6-239.3-560.8-440.2c-101.4-187.6-111-269.9-111-901.5v-580h325.4h325.4V2905v-162.7H425.4H100V-622.6c0-3682.7-5.7-3468.3,111-3686.5c67-124.4,235.4-292.8,359.8-359.8c216.3-116.8,53.6-111,3186.9-111h2863.4l11.5,139.7c17.2,239.2,103.4,377.1,290.9,465.1c189.5,90,423,40.2,562.7-116.7c86.1-99.5,114.8-174.2,130.1-344.5L7628-4780h738.8c805.8,0,867.1,5.7,1062.3,111c124.4,67,292.8,235.4,359.8,359.8c109.1,201,111,233.5,111,1313.1v991.5h-352.2c-344.5,0-356,1.9-405.8,45.9c-74.7,63.2-74.7,170.3,0,233.5c49.8,44,61.2,45.9,405.8,45.9H9900v86.1v86.1h-359.8c-350.3,0-361.8,1.9-400,44c-21,23-45.9,61.3-51.7,84.2c-17.2,57.4,36.4,155,95.7,178c26.8,11.5,199.1,19.1,382.8,19.1H9900v76.6v76.6h-333.1c-183.7,0-356,7.7-382.8,19.1C9136.3-992,9077-902.1,9077-848.5c0,15.3,23,53.6,49.8,86.1l49.8,59.3h361.7H9900v86.1v86.1h-352.2c-344.5,0-356,1.9-405.8,45.9c-74.7,63.2-74.7,170.3,0,233.5c49.8,44,61.2,45.9,405.8,45.9H9900v76.6v76.6h-325.4c-371.3,0-438.3,15.3-476.6,112.9c-21,47.8-21,70.8,0,118.7c38.3,97.6,105.3,112.9,476.6,112.9H9900v76.6v76.6h-352.2c-344.5,0-356,1.9-405.8,45.9c-40.2,34.5-53.6,61.3-53.6,116.8c0,55.5,13.4,82.3,53.6,116.8c49.8,44,61.2,45.9,405.8,45.9H9900v86.1v86.1h-359.8h-361.8l-44,47.9c-61.3,65.1-61.3,166.5-3.8,225.8c40.2,40.2,59.3,42.1,405.8,47.9l363.7,5.8v76.6v74.6h-335c-361.8,0-415.4,11.5-461.3,97.6c-38.3,74.6-34.5,101.4,22.9,168.4l49.8,59.3h361.7H9900v86.1v86.1h-352.2c-344.5,0-356,1.9-405.8,45.9c-74.7,63.2-74.7,170.4,0,233.5c49.8,44,61.2,45.9,405.8,45.9H9900v991.5c0,1079.5-1.9,1112.1-111,1313c-67,124.4-235.4,292.9-359.8,359.8c-195.2,105.3-256.5,111-1062.3,111H7628l-13.4-143.6c-15.3-168.4-45.9-250.7-130.1-346.4c-137.8-155-373.3-204.8-560.8-114.8c-187.6,88.1-273.7,225.9-290.9,465.1l-11.5,139.7l-2873-1.9C1300.2,5018.1,859.9,5014.3,771.9,4989.4z M986.2,4346.3c149.3-78.5,99.5-304.3-67-302.4c-70.8,1.9-112.9,26.8-145.5,90c-36.4,67-26.8,120.6,32.5,179.9C865.7,4373.1,919.3,4382.6,986.2,4346.3z M9193.7,4313.7c59.4-59.3,68.9-112.9,32.5-179.9c-78.5-149.3-304.3-99.5-302.4,67C8925.7,4353.9,9086.5,4420.9,9193.7,4313.7z M4087,3695.5c78.5-40.2,88-74.6,90-277.5v-197.1h162.7h162.7v172.3c0,201,26.8,269.9,114.8,306.3c45.9,19.1,68.9,19.1,114.8,0c32.5-13.4,65.1-34.5,72.7-45.9c7.7-11.5,17.2-111,23-222l9.6-201H5000h162.7l9.6,201c5.7,111,15.3,210.5,23,222s40.2,32.5,72.7,45.9c45.9,19.1,68.9,19.1,116.8-1.9c84.2-32.5,112.9-116.8,112.9-313.9v-162.7h162.7h162.7v197.1c0,172.3,5.7,202.9,38.3,239.3c51.7,55.5,120.6,70.8,183.7,38.3c82.3-38.3,103.4-99.5,103.4-296.7v-178h162.7h162.7v-325.4V2570h179.9c310.1,0,524.4-99.5,668-310.1c91.9-137.8,128.3-271.8,128.3-488.1v-178h325.4h325.4v-162.7v-162.7h178c197.1,0,258.4-21.1,296.7-103.4c32.5-63.2,17.2-132.1-38.3-183.8c-36.4-32.5-67-38.3-239.3-38.3h-197.1V780.4V617.7h172.3c201,0,269.9-26.8,306.3-114.8c19.1-45.9,19.1-68.9,0-114.8c-13.4-32.5-34.5-65.1-45.9-72.7c-11.5-7.7-111-17.2-222-23l-201-9.6V120V-42.7l201-9.6c111-5.7,210.5-15.3,222-23c11.5-7.6,32.5-40.2,45.9-72.7c19.1-45.9,19.1-68.9-1.9-116.7c-32.5-84.2-116.8-112.9-313.9-112.9h-162.7v-162.7V-703h197.1c172.3,0,202.9-5.7,239.3-38.3c55.5-51.7,70.8-120.6,38.3-183.7c-38.3-82.3-99.5-103.4-296.7-103.4h-178v-162.7v-162.7h-325.4H7450v-176.1c0-101.4-13.4-220.1-30.6-281.4c-63.2-225.9-262.2-424.9-488.1-488.1c-61.3-17.2-179.9-30.6-281.4-30.6h-176.1v-325.4v-325.4h-162.7h-162.7v-176.1c0-199.1-21-260.3-103.4-298.6c-63.2-32.5-132.1-17.2-183.7,38.3c-32.5,36.4-38.3,67-38.3,239.3v197.1h-162.7h-162.7v-162.7c0-197.1-28.7-281.4-112.9-313.9c-47.9-21.1-70.8-21.1-116.8-1.9c-32.5,13.4-65.1,34.5-72.7,45.9c-7.7,11.5-17.2,111-23,222l-9.6,201H5000h-162.7l-9.6-201c-5.7-111-15.3-210.5-23-222c-7.7-11.5-40.2-32.5-72.7-45.9c-45.9-19.1-68.9-19.1-114.8,0c-88,36.4-114.8,105.3-114.8,306.3v172.3h-162.7H4177v-197.1c0-172.3-5.7-202.9-38.3-239.3c-51.7-55.5-120.6-70.8-183.8-38.3c-82.3,38.3-103.4,99.5-103.4,298.6v176.1h-162.7h-162.7v325.4v325.4h-178c-216.3,0-350.3,36.4-488.1,128.3c-210.5,143.6-310.1,357.9-310.1,668v179.9h-325.4h-325.4v162.7v162.7h-176.1c-199.1,0-260.3,21.1-298.6,103.4c-30.6,61.2-17.2,132.1,34.4,183.7c32.5,32.5,65.1,38.3,239.3,38.3h201v162.7v162.7h-162.7c-197.1,0-281.4,28.7-313.9,112.9c-21.1,47.9-21.1,70.8-1.9,116.7c13.4,32.5,34.5,65.1,45.9,72.7c11.5,7.7,111,17.2,222,23l201,9.6V120v162.7l-201,9.6c-111,5.7-210.5,15.3-222,23c-11.5,7.7-32.5,40.2-45.9,72.7c-19.1,45.9-19.1,68.9,0,114.8c36.4,88,105.3,114.8,306.3,114.8h172.3v162.7v162.7h-197.1c-172.3,0-202.9,5.7-239.3,38.3c-55.5,51.7-70.8,120.6-38.3,183.8c38.3,82.3,99.5,103.4,298.6,103.4h176.1v162.7v162.7h323.5h323.5l7.7,216.3c5.7,170.4,15.3,233.5,49.8,310.1c141.6,312,369.4,449.8,740.7,449.8h181.8v325.4v325.4h162.7h162.7v178c0,193.3,21.1,256.5,95.7,294.8C4006.6,3724.2,4035.3,3724.2,4087,3695.5z M873.3-913.6c90-90,13.4-268-112.9-268c-174.2,0-227.8,218.2-76.6,304.3C733.6-848.5,827.4-865.7,873.3-913.6z M817.8-1529.9c155-70.8,105.3-302.4-65.1-302.4c-168.4,0-218.2,222-68.9,302.4C733.6-1501.2,756.6-1501.2,817.8-1529.9z M815.9-2184.5c132.1-55.5,134-235.4,0-290.9c-34.5-15.3-78.5-21.1-97.6-13.4c-174.2,61.3-156.9,277.5,28.7,329.2C748.9-2157.7,779.5-2169.2,815.9-2184.5z M852.3-2854.4c17.2-13.4,42.1-51.7,53.6-84.2c57.4-162.7-176.1-281.4-281.4-141.7c-40.2,51.7-32.5,158.9,15.3,208.6C687.7-2821.9,796.8-2812.3,852.3-2854.4z M1028.4-3851.6c90-88,45.9-239.3-80.4-269.9c-101.4-26.8-216.3,88-189.5,189.5C789.1-3805.7,940.3-3761.7,1028.4-3851.6z M9188-3842.1c88.1-82.3,70.8-204.8-36.4-266.1c-97.6-55.5-227.8,26.8-227.8,145.5C8923.8-3828.7,9090.4-3752.1,9188-3842.1z M1962.4-3979.9c63.2-32.5,88.1-74.6,90-147.4c1.9-181.8-260.3-214.4-315.8-40.2c-19.1,57.4,24.9,149.3,84.2,181.8C1882-3951.2,1908.8-3951.2,1962.4-3979.9z M2626.6-3985.6c91.9-47.9,107.2-174.2,32.5-252.7c-78.5-86.1-225.9-44-268,74.7c-19.1,51.7,24.9,147.4,80.4,178C2536.6-3951.2,2559.6-3951.2,2626.6-3985.6z M3267.8-3979.9c155-70.8,105.3-302.4-65.1-302.4c-168.4,0-218.2,222-68.9,302.4C3183.6-3951.2,3206.5-3951.2,3267.8-3979.9z M3970.3-4008.6c47.9-44,61.2-128.2,26.8-193.3c-74.6-143.6-298.6-86.1-298.6,78.5c0,63.2,47.9,128.3,114.8,153.1C3853.5-3955,3932-3974.1,3970.3-4008.6z"
         id="path10"
         style="fill:#666666" /><path
         d="M3851.6,2732.7V2570H5000h1148.4v162.7v162.7H5000H3851.6V2732.7z"
         id="path12"
         style="fill:#666666" /><path
         d="M3084.1,2191c-82.3-42.1-112.9-72.7-155-155l-53.6-101.5V120v-1814.5l53.6-101.4c42.1-82.3,72.7-112.9,155-155.1l101.5-53.6H5000h1814.5L6916-1951c82.3,42.1,112.9,72.7,155,155.1l53.6,101.4V120v1814.5L7071,2036c-42.1,82.3-72.7,112.9-155,155l-101.4,53.6H5000H3185.5L3084.1,2191z M3803.7,1699.1c145.5-143.6-70.8-365.6-222-227.8c-49.8,45.9-63.2,130.2-28.7,195.2c34.5,65.1,53.6,76.6,141.6,78.5C3736.7,1747,3773.1,1731.7,3803.7,1699.1z M4458.3,1704.9c30.6-28.7,44-63.2,44-114.8c0-172.3-218.2-225.9-296.7-72.7C4125.3,1672.3,4330.1,1825.4,4458.3,1704.9z M5112.9,1701c118.7-126.3-13.4-325.4-172.3-258.4c-67,26.8-120.6,126.3-99.5,183.8C4883.3,1748.9,5030.7,1789.1,5112.9,1701z M5759.9,1704.9c57.4-65.1,68.9-120.6,36.4-183.7c-40.2-78.5-126.3-111-202.9-80.4c-70.8,28.7-95.7,70.8-95.7,155C5497.7,1731.7,5669.9,1802.5,5759.9,1704.9z M6387.7,1735.5c84.2-32.5,103.4-197.1,30.6-264.1c-63.2-57.4-141.6-57.4-208.6-1.9C6062.3,1593.8,6204,1804.4,6387.7,1735.5z M4087,1245.5c101.5-53.6,122.5-176.1,42.1-254.6c-124.4-124.4-331.1,17.2-254.6,174.2c24.9,53.6,95.7,103.4,145.5,103.4C4033.4,1268.5,4064.1,1258.9,4087,1245.5z M4749.3,1239.7c61.3-30.6,78.5-63.2,78.5-149.3c0-84.2-65.1-147.4-153.1-147.4c-166.5,0-224,218.2-78.5,296.7C4659.3,1274.2,4684.2,1274.2,4749.3,1239.7z M5400.1,1239.7c59.3-28.7,103.3-124.4,84.2-178c-61.2-176.1-312-149.3-312,34.5c0,74.6,24.9,116.8,86.1,149.3C5310.1,1274.2,5336.9,1274.2,5400.1,1239.7z M6092.9,1218.7c70.8-65.1,61.3-189.5-19.1-250.7c-93.8-72.7-250.7,11.5-250.7,132.1C5825,1243.6,5987.7,1314.4,6092.9,1218.7z M3803.7,723c78.5-76.6,63.2-201-30.6-248.8c-80.4-42.1-128.2-34.4-191.4,26.8c-68.9,68.9-70.8,134-5.7,210.5C3639.1,788,3734.8,793.8,3803.7,723z M4454.5,723c95.7-93.8,45.9-248.8-88-269.9c-155-24.9-245,170.3-124.4,271.8C4311,784.2,4395.2,784.2,4454.5,723z M5105.3,728.7c90-78.5,53.6-246.9-57.4-275.6c-112.9-28.7-208.6,51.7-204.8,170.3c1.9,76.6,78.5,147.4,157,147.4C5030.7,770.8,5078.5,751.7,5105.3,728.7z M5758,724.9c120.6-101.5,30.6-296.7-124.4-271.8c-86.1,13.4-135.9,72.7-135.9,158.9C5497.7,749.7,5650.8,818.7,5758,724.9z M6424.1,711.5c65.1-76.6,63.2-141.6-5.8-210.5c-63.2-61.2-111-68.9-191.4-26.8c-143.6,72.7-82.3,296.7,82.3,296.7C6359,770.8,6385.8,757.4,6424.1,711.5z M4134.9,229.1c28.7-26.8,42.1-61.3,42.1-109.1c0-174.2-239.3-220.1-306.2-57.4c-32.5,78.5,3.8,168.4,84.2,202.9C4023.9,294.2,4073.6,284.6,4134.9,229.1z M4785.6,229.1c84.2-76.6,42.1-225.9-76.6-268c-19.1-5.7-61.2-1.9-93.8,9.6c-128.2,44-135.9,239.3-9.6,294.8C4674.6,294.2,4724.4,284.6,4785.6,229.1z M5390.5,265.5C5474.7,231,5507.2,143,5470.9,53c-65.1-157-298.6-105.3-298.6,67c0,80.4,55.5,145.5,149.3,170.4C5323.5,292.3,5356,280.8,5390.5,265.5z M6041.3,265.5c84.2-34.5,120.6-122.5,88-202.9c-67-162.7-306.3-116.7-306.3,57.4c0,80.4,55.5,145.5,149.3,170.4C5974.3,292.3,6004.9,280.8,6041.3,265.5z M3773.1-234.1c139.7-70.8,82.3-296.7-74.6-296.7c-76.6,0-172.3,90-172.3,162.7c0,61.3,93.8,162.7,153.1,162.7C3700.4-205.4,3744.4-218.8,3773.1-234.1z M4454.5-253.2c99.5-97.6,30.6-277.5-103.4-277.5c-88.1,0-162.7,74.7-162.7,162.7C4188.5-226.4,4356.9-153.7,4454.5-253.2z M5105.3-253.2c72.7-70.8,70.8-168.4-1.9-233.5c-103.4-93.8-260.3-21-260.3,118.7C4843.1-224.5,5005.8-151.8,5105.3-253.2z M5758-251.3c111-93.8,38.3-279.5-109.1-279.5c-82.3,0-151.2,74.7-151.2,162.7C5497.7-226.4,5650.8-157.5,5758-251.3z M6418.3-260.9c32.5-34.5,55.5-76.6,55.5-107.2c0-72.7-95.7-162.7-172.3-162.7c-80.4,0-153.1,74.7-153.1,158.9C6148.4-220.7,6311.1-153.7,6418.3-260.9z M4129.1-750.9c126.3-124.4-17.2-331.1-176.1-254.6c-28.7,13.4-65.1,49.8-78.5,78.5C3798-768.1,4004.7-624.6,4129.1-750.9z M4783.7-745.1c47.9-44,59.3-141.6,24.9-204.8c-30.6-59.3-124.4-88-193.3-57.4c-67,26.8-120.6,126.3-99.5,183.8C4557.9-704.9,4697.6-662.8,4783.7-745.1z M5434.5-745.1c57.4-65.1,65.1-105.3,36.4-176.1c-34.5-84.2-122.5-120.6-202.9-88c-70.8,28.7-95.7,70.8-95.7,155C5172.3-718.3,5344.6-647.5,5434.5-745.1z M6087.2-741.3c86.1-80.4,65.1-214.4-40.2-264.1c-157-74.7-300.5,132.1-181.8,258.4C5918.8-689.6,6027.9-687.7,6087.2-741.3z M3792.3-1231.3c116.8-97.6,49.8-275.6-103.4-275.6c-168.4,0-218.2,223.9-67,300.5C3692.7-1170.1,3727.2-1175.8,3792.3-1231.3z M4423.9-1210.3c63.2-30.6,78.5-63.2,78.5-153.1c0-126.3-176.1-193.3-264.1-99.5c-80.4,86.1-65.1,206.7,34.4,256.5C4333.9-1175.8,4358.8-1175.8,4423.9-1210.3z M5076.6-1210.3c143.6-74.6,84.2-296.7-76.6-296.7c-158.9,0-218.2,220.1-80.4,294.8C4986.6-1175.8,5007.7-1175.8,5076.6-1210.3z M5715.9-1200.7c59.3-23,112.9-120.6,95.7-178c-55.5-183.8-313.9-164.6-313.9,24.9c0,74.7,24.9,116.8,86.1,149.3C5631.6-1177.7,5654.6-1177.7,5715.9-1200.7z M6418.3-1231.3c49.8-46,63.2-130.2,28.7-195.2c-49.8-95.7-174.2-111-250.7-32.5C6050.8-1315.5,6267.1-1093.5,6418.3-1231.3z"
         id="path14"
         style="fill:#666666" /><path
         d="M2224.6,120v-1148.4h162.7H2550V120v1148.4h-162.7h-162.7V120z"
         id="path16"
         style="fill:#666666" /><path
         d="M7450,120v-1148.4h162.7h162.7V120v1148.4h-162.7H7450V120z"
         id="path18"
         style="fill:#666666" /><path
         d="M3851.6-2492.7v-162.7H5000h1148.4v162.7v162.7H5000H3851.6V-2492.7z"
         id="path20"
         style="fill:#666666" /></g></g></svg>