<svg version="1.1" xmlns="http://www.w3.org/2000/svg" xmlns:xlink="http://www.w3.org/1999/xlink" x="0px" y="0px" viewBox="0 0 1000 1000" enable-background="new 0 0 1000 1000" xml:space="preserve">
<metadata> Svg Vector Icons : http://www.onlinewebfonts.com/icon </metadata>
  <g><g transform="translate(0.000000,511.000000) scale(0.100000,-0.100000)"><path d="M4669.6,5002.7c-1204.9-86.4-2285.8-578.1-3134.2-1428.6c-773-773-1242.6-1716.6-1395.4-2813C64.8,238.4,98-470.4,219.8-999.8c374.3-1630.2,1597-2988,3182.9-3530.7c536-183.8,1012.2-261.4,1599.2-261.4c580.3,0,1005.6,68.7,1554.9,248.1c728.7,239.2,1353.3,626.8,1911.5,1185C9256.8-2570.2,9724.2-1613.4,9877-468.2c31,245.9,31,910.4-2.2,1162.9c-148.4,1129.6-618,2090.9-1406.5,2879.4c-770.8,770.8-1740.9,1253.7-2801.9,1393.2C5334.1,5009.4,4959.8,5022.7,4669.6,5002.7z M5369.6,4825.5c932.5-75.3,1858.3-440.8,2578.2-1016.7c660-529.4,1216-1298,1495.1-2073.2c201.6-553.7,283.5-1036.6,283.5-1650.2c-2.2-748.7-157.3-1413.1-489.5-2082.1c-230.4-465.1-536-883.8-925.8-1267c-717.7-704.4-1572.6-1136.3-2578.2-1302.4c-383.2-64.2-990.1-68.7-1382.1-13.3c-1563.8,223.7-2906,1200.5-3601.5,2618.1C390.4-1232.4,222-359.7,281.8,435.5c190.5,2471.9,2181.7,4352.4,4666.9,4410C5024,4845.5,5212.3,4836.6,5369.6,4825.5z"></path><path d="M2942,2666v-232.6h88.6h88.6V2666v232.6h-88.6H2942V2666z"></path><path d="M3296.4,2666v-232.6h88.6h88.6V2666v232.6H3385h-88.6V2666z"></path><path d="M3650.8,2666v-232.6h88.6h88.6V2666v232.6h-88.6h-88.6V2666z"></path><path d="M4005.2,2666v-232.6h88.6h88.6V2666v232.6h-88.6h-88.6V2666z"></path><path d="M4381.7,2666v-232.6h88.6h88.6V2666v232.6h-88.6h-88.6V2666z"></path><path d="M4736.1,2666v-232.6h88.6h88.6V2666v232.6h-88.6h-88.6V2666z"></path><path d="M5090.5,2666v-232.6h88.6h88.6V2666v232.6h-88.6h-88.6V2666z"></path><path d="M5444.9,2666v-232.6h88.6h88.6V2666v232.6h-88.6h-88.6V2666z"></path><path d="M5821.4,2666v-232.6h88.6h88.6V2666v232.6H5910h-88.6V2666z"></path><path d="M6175.8,2666v-232.6h88.6h88.6V2666v232.6h-88.6h-88.6V2666z"></path><path d="M6530.2,2666v-232.6h88.6h88.6V2666v232.6h-88.6h-88.6V2666z"></path><path d="M6884.6,2666v-232.6h88.6h88.6V2666v232.6h-88.6h-88.6V2666z"></path><path d="M2809.1,118.7v-2203.9H5013h2203.9V118.7v2203.9H5013H2809.1V118.7z M7039.7,118.7v-2026.7H5013H2986.3V118.7v2026.7H5013h2026.7V118.7z"></path><path d="M3296.4,118.7v-1716.6H5013h1716.6V118.7v1716.6H5013H3296.4V118.7z M6552.4,118.7v-1539.4H5013H3473.6V118.7v1539.4H5013h1539.4V118.7z"></path><path d="M2211,2079v-88.6h232.6h232.6v88.6v88.6h-232.6H2211V2079z"></path><path d="M7327.6,2079v-88.6h232.6h232.6v88.6v88.6h-232.6h-232.6V2079z"></path><path d="M2211,1724.6V1636h232.6h232.6v88.6v88.6h-232.6H2211V1724.6z"></path><path d="M7327.6,1724.6V1636h232.6h232.6v88.6v88.6h-232.6h-232.6V1724.6z"></path><path d="M2211,1370.2v-88.6h232.6h232.6v88.6v88.6h-232.6H2211V1370.2z"></path><path d="M7327.6,1370.2v-88.6h232.6h232.6v88.6v88.6h-232.6h-232.6V1370.2z"></path><path d="M2211,1015.8v-88.6h232.6h232.6v88.6v88.6h-232.6H2211V1015.8z"></path><path d="M7327.6,1015.8v-88.6h232.6h232.6v88.6v88.6h-232.6h-232.6V1015.8z"></path><path d="M2211,639.3v-88.6h232.6h232.6v88.6v88.6h-232.6H2211V639.3z"></path><path d="M7327.6,639.3v-88.6h232.6h232.6v88.6v88.6h-232.6h-232.6V639.3z"></path><path d="M2211,284.9v-88.6h232.6h232.6v88.6v88.6h-232.6H2211V284.9z"></path><path d="M7327.6,284.9v-88.6h232.6h232.6v88.6v88.6h-232.6h-232.6V284.9z"></path><path d="M2211-69.5v-88.6h232.6h232.6v88.6v88.6h-232.6H2211V-69.5z"></path><path d="M7327.6-69.5v-88.6h232.6h232.6v88.6v88.6h-232.6h-232.6V-69.5z"></path><path d="M2211-423.9v-88.6h232.6h232.6v88.6v88.6h-232.6H2211V-423.9z"></path><path d="M7327.6-423.9v-88.6h232.6h232.6v88.6v88.6h-232.6h-232.6V-423.9z"></path><path d="M2211-800.5v-88.6h232.6h232.6v88.6v88.6h-232.6H2211V-800.5z"></path><path d="M7327.6-800.5v-88.6h232.6h232.6v88.6v88.6h-232.6h-232.6V-800.5z"></path><path d="M2211-1154.9v-88.6h232.6h232.6v88.6v88.6h-232.6H2211V-1154.9z"></path><path d="M7327.6-1154.9v-88.6h232.6h232.6v88.6v88.6h-232.6h-232.6V-1154.9z"></path><path d="M2211-1509.2v-88.6h232.6h232.6v88.6v88.6h-232.6H2211V-1509.2z"></path><path d="M7327.6-1509.2v-88.6h232.6h232.6v88.6v88.6h-232.6h-232.6V-1509.2z"></path><path d="M2211-1863.6v-88.6h232.6h232.6v88.6v88.6h-232.6H2211V-1863.6z"></path><path d="M7327.6-1863.6v-88.6h232.6h232.6v88.6v88.6h-232.6h-232.6V-1863.6z"></path><path d="M2942-2450.6v-232.6h88.6h88.6v232.6v232.6h-88.6H2942V-2450.6z"></path><path d="M3296.4-2450.6v-232.6h88.6h88.6v232.6v232.6H3385h-88.6V-2450.6z"></path><path d="M3650.8-2450.6v-232.6h88.6h88.6v232.6v232.6h-88.6h-88.6V-2450.6z"></path><path d="M4005.2-2450.6v-232.6h88.6h88.6v232.6v232.6h-88.6h-88.6V-2450.6z"></path><path d="M4381.7-2450.6v-232.6h88.6h88.6v232.6v232.6h-88.6h-88.6V-2450.6z"></path><path d="M4736.1-2450.6v-232.6h88.6h88.6v232.6v232.6h-88.6h-88.6V-2450.6z"></path><path d="M5090.5-2450.6v-232.6h88.6h88.6v232.6v232.6h-88.6h-88.6V-2450.6z"></path><path d="M5444.9-2450.6v-232.6h88.6h88.6v232.6v232.6h-88.6h-88.6V-2450.6z"></path><path d="M5821.4-2450.6v-232.6h88.6h88.6v232.6v232.6H5910h-88.6V-2450.6z"></path><path d="M6175.8-2450.6v-232.6h88.6h88.6v232.6v232.6h-88.6h-88.6V-2450.6z"></path><path d="M6530.2-2450.6v-232.6h88.6h88.6v232.6v232.6h-88.6h-88.6V-2450.6z"></path><path d="M6884.6-2450.6v-232.6h88.6h88.6v232.6v232.6h-88.6h-88.6V-2450.6z"></path></g></g></svg>