<svg version="1.1" xmlns="http://www.w3.org/2000/svg" xmlns:xlink="http://www.w3.org/1999/xlink" x="0px" y="0px" viewBox="0 0 1000 1000" enable-background="new 0 0 1000 1000" xml:space="preserve">
<metadata> Svg Vector Icons : http://www.onlinewebfonts.com/icon </metadata>
  <g><g transform="translate(0.000000,511.000000) scale(0.100000,-0.100000)"><path d="M4551.8,4999.1c-1181.7-124.3-2192.3-601-3017.4-1424.2C764.2,2802.8,305.8,1888,136.7,781.7C87.8,457.7,87.8-239.1,136.7-563c173.2-1126.7,676.4-2108.7,1466.9-2864.6c755.9-723.3,1660.5-1163.4,2724-1326.4c324-48.9,1020.8-48.9,1344.7,0c1067.6,163,1982.4,609.2,2738.3,1338.6C9191-2665.7,9692.2-1681.6,9863.3-563c48.9,324,48.9,1020.8,0,1344.7c-95.8,617.3-291.3,1208.2-568.4,1701.3c-760,1354.9-2061.9,2253.4-3602.2,2485.7C5438,5007.3,4794.2,5023.6,4551.8,4999.1z M5495.1,4622.2C7202.4,4422.5,8647,3285.7,9246,1672c189.5-509.4,264.9-957.6,264.9-1562.7c0-482.9-26.5-713.1-130.4-1124.7c-226.1-900.5-764-1758.3-1471-2343c-670.3-558.2-1416-896.5-2267.6-1028.9c-309.7-48.9-1014.6-48.9-1324.3,0C3178.6-4210,2176.1-3637.5,1456.9-2757.3C597.1-1701.9,258.9-328.7,529.9,1020C809,2425.9,1795.1,3660.5,3111.3,4249.4C3863.1,4587.6,4690.3,4715.9,5495.1,4622.2z" style="fill:#000000"></path><path d="M4152.4,2444.2l-69.3-69.3v-566.4v-568.4l-120.2-106l-120.2-108h-564.4H2714l-69.3-69.3c-48.9-48.9-69.3-87.6-69.3-134.5c0-46.9,20.4-83.5,69.3-134.5l69.3-69.3h476.8h474.7V109.3V-400h-474.7H2714l-69.3-69.3c-77.4-77.4-87.6-146.7-34.6-236.4c18.3-32.6,55-67.2,81.5-79.4c30.6-14.3,244.5-22.4,586.8-22.4h539.9L3950.7-940l132.4-132.4v-552.1v-552.1l69.3-69.3c77.4-77.4,146.7-87.6,236.3-34.6c32.6,18.3,67.2,55,79.5,81.5c14.3,30.6,22.4,220,22.4,501.2v452.3H5000h509.4v-454.3c0-389.1,4.1-464.5,34.6-513.4c69.3-120.2,201.7-134.5,303.6-32.6l69.3,69.3v552.1v552.1L6049.3-940l132.4,132.4h552.1H7286l69.3,69.3c93.7,93.7,93.7,175.2,0,268.9L7286-400h-476.8h-474.7v509.4v509.4H6799c399.3,0,474.7,4.1,523.6,34.6c120.2,69.3,134.5,201.7,32.6,303.6l-69.3,69.3h-564.4h-564.4l-120.2,103.9L5916.8,1236v558.3c0,486.9-4.1,568.4-34.6,617.3c-69.3,120.2-201.7,134.5-303.6,32.6l-69.3-69.3V1890v-486.9H5000h-509.4V1890v484.9l-69.3,69.3c-48.9,50.9-87.6,69.3-134.5,69.3S4203.4,2495.1,4152.4,2444.2z M5554.2,999.7c150.8-73.3,283.2-205.8,356.6-356.5l57-116.1V78.8v-448.2l-57-116.1c-73.3-150.8-205.8-283.2-356.6-356.5L5438-899.2h-448.2h-448.2l-116.1,57.1c-150.8,73.4-283.2,205.8-356.6,356.5l-57,116.1V78.8c0,446.2,0,448.2,55,560.3c95.8,195.6,293.4,358.6,493.1,409.5c34.6,8.1,246.5,14.3,470.6,12.2C5431.9,1056.7,5440.1,1056.7,5554.2,999.7z" style="fill:#000000"></path><path d="M4694.4,722.6c-142.6-46.9-246.5-134.5-317.8-266.9c-32.6-61.1-38.7-118.2-38.7-376.9c0-332.1,12.2-378.9,130.4-505.3c116.1-128.4,185.4-146.7,521.6-146.7s405.4,18.3,521.6,146.7c118.2,126.3,130.4,173.2,130.4,505.3c0,336.2-18.3,405.4-146.7,521.6c-120.2,112.1-179.3,128.4-474.7,134.5C4869.6,736.8,4722.9,732.8,4694.4,722.6z" style="fill:#000000"></path></g></g></svg>