<svg version="1.1" xmlns="http://www.w3.org/2000/svg" xmlns:xlink="http://www.w3.org/1999/xlink" x="0px" y="0px" viewBox="0 0 1000 1000" enable-background="new 0 0 1000 1000" xml:space="preserve">
<metadata> Svg Vector Icons : http://www.onlinewebfonts.com/icon </metadata>
  <g><g transform="translate(0.000000,512.000000) scale(0.100000,-0.100000)"><path d="M2310.8,4608.5v-411.5h162.7h162.7V120v-4076.9h-162.7h-162.7v-411.5V-4780h813.5h813.5v111c1.9,325.4,304.3,491.9,537.9,296.7c80.4-68.9,112.9-151.2,112.9-292.9V-4780h1336c1519.8,0,1454.7-5.7,1611.6,153.1c149.3,147.4,153.1,170.4,153.1,960.8v685.2H7115h-574.2v162.7v162.7H7115h574.2v76.6v76.6l-568.5,3.8l-570.4,5.7v162.7v162.7l570.4,5.7l568.5,3.8v76.6v76.6H7115h-574.2v162.7v162.7H7115h574.2v86.1v86.1H7115h-576.1l5.7,158.9l5.7,157l570.4,5.7l568.5,3.8v76.6v76.6l-568.5,3.8l-570.4,5.7l-5.7,158.9l-5.7,157H7115h574.2v86.1v86.1H7115h-574.2v162.7v162.7H7115h574.2v76.6v76.6l-568.5,3.8l-570.4,5.7V120v162.7l570.4,5.7l568.5,3.8v76.6v76.6H7115h-574.2v162.7v162.7H7115h574.2v86.1V943H7115h-576.1l5.7,158.9l5.7,157l570.4,5.7l568.5,3.8v76.6v76.6l-568.5,3.8l-570.4,5.7l-5.7,158.9l-5.7,157H7115h574.2v86.1v86.1H7115h-574.2v162.7v162.7H7115h574.2v76.6v76.6l-568.5,3.8l-570.4,5.7V2570v162.7l570.4,5.7l568.5,3.8v76.6v76.6H7115h-574.2v162.7v162.7H7115h574.2V3906c0,790.5-3.8,813.5-153.1,960.9c-157,158.9-91.9,153.1-1611.6,153.1h-1336v-114.8c0-141.6-32.5-224-112.9-292.9c-114.8-95.7-283.3-105.3-402-19.1c-80.4,59.3-135.9,189.5-135.9,315.8v111h-813.5h-813.5V4608.5z M3133.8,120v-4574.6H2885h-248.8v86.1v86.1h162.7h162.7V120v4402.3h-162.7h-162.7v86.1v86.1H2885h248.8V120z M4435.4,3881.1v-162.7h76.6h76.6v162.7v162.7h162.7h162.7v-162.7v-162.7h86.1h86.1v162.7v162.7h162.7h162.7v-162.7v-162.7h162.7h162.7l-3.8-654.6l-5.7-656.5l-157-5.7l-157-5.8l-5.7-156.9l-5.7-157l-157-5.7l-158.9-5.7V2235v162.7H5000h-86.1V2235v-164.6l-157,5.7l-158.9,5.7l-5.7,158.9l-5.7,157h-74.6h-74.6l-5.7-157l-5.7-158.9l-157-5.7l-158.9-5.7V2235v162.7h-162.7h-162.7v660.4v660.4h162.7H4110v162.7v162.7h162.7h162.7V3881.1z M4435.4,933.5V770.8h76.6h76.6v162.7v162.7h162.7h162.7V933.5V770.8h86.1h86.1v162.7v162.7h162.7h162.7V933.5V770.8h162.7h162.7V120v-650.8h-162.7h-162.7v-162.7v-162.7h-162.7h-162.7v162.7v162.7H5000h-86.1v-162.7v-162.7h-162.7h-162.7v162.7v162.7h-76.6h-76.6v-162.7v-162.7h-162.7H4110v162.7v162.7h-162.7h-162.7V120v650.8h162.7H4110v162.7v162.7h162.7h162.7V933.5z M4431.5-1998.9l5.7-158.9h74.6h74.6l5.7,158.9l5.7,157l158.9,5.7l157,5.7V-1995v-162.7h86.1h86.1v162.7v164.6l158.9-5.7l157-5.7l5.7-157l5.7-157l157-5.7l157-5.7l5.7-654.6l3.8-656.5h-162.7h-162.7v-162.7v-162.7h-162.7h-162.7v162.7v162.7H5000h-86.1v-162.7v-162.7h-162.7h-162.7v162.7v162.7h-76.6h-76.6v-162.7v-162.7h-162.7H4110v162.7v162.7h-162.7h-162.7v660.4v660.4h162.7H4110v162.7v164.6l158.9-5.7l157-5.7L4431.5-1998.9z"></path><path d="M4110,3067.6v-325.4h650.8h650.8v325.4V3393h-650.8H4110V3067.6z"></path><path d="M4110,120v-325.4h650.8h650.8V120v325.4h-650.8H4110V120z"></path><path d="M4110-2827.6V-3153h650.8h650.8v325.4v325.4h-650.8H4110V-2827.6z"></path></g></g></svg>