<?xml version="1.0" encoding="UTF-8" standalone="no"?>
<svg
   xmlns:dc="http://purl.org/dc/elements/1.1/"
   xmlns:cc="http://creativecommons.org/ns#"
   xmlns:rdf="http://www.w3.org/1999/02/22-rdf-syntax-ns#"
   xmlns:svg="http://www.w3.org/2000/svg"
   xmlns="http://www.w3.org/2000/svg"
   xmlns:sodipodi="http://sodipodi.sourceforge.net/DTD/sodipodi-0.dtd"
   xmlns:inkscape="http://www.inkscape.org/namespaces/inkscape"
   version="1.1"
   x="0px"
   y="0px"
   viewBox="0 0 1000 1000"
   enable-background="new 0 0 1000 1000"
   xml:space="preserve"
   id="svg2"
   inkscape:version="0.91 r13725"
   sodipodi:docname="disk.svg"><defs
     id="defs14" /><sodipodi:namedview
     pagecolor="#ffffff"
     bordercolor="#666666"
     borderopacity="1"
     objecttolerance="10"
     gridtolerance="10"
     guidetolerance="10"
     inkscape:pageopacity="0"
     inkscape:pageshadow="2"
     inkscape:window-width="686"
     inkscape:window-height="480"
     id="namedview12"
     showgrid="false"
     inkscape:zoom="0.236"
     inkscape:cx="500"
     inkscape:cy="500"
     inkscape:window-x="0"
     inkscape:window-y="0"
     inkscape:window-maximized="0"
     inkscape:current-layer="svg2" /><metadata
     id="metadata4"> Svg Vector Icons : http://www.onlinewebfonts.com/icon <rdf:RDF><cc:Work
     rdf:about=""><dc:format>image/svg+xml</dc:format><dc:type
       rdf:resource="http://purl.org/dc/dcmitype/StillImage" /></cc:Work></rdf:RDF></metadata><g
     id="g6"
     style="fill:#666666;fill-opacity:1"><g
       transform="matrix(1 0 0 -1 0 1952)"
       id="g8"
       style="fill:#666666;fill-opacity:1"><path
         d="M810.3,1942H189.7c-36.1,0-65.3-29.3-65.3-65.3v-849.3c0-36.1,29.3-65.3,65.3-65.3h620.7c36.1,0,65.3,29.3,65.3,65.3v849.3C875.7,1912.7,846.4,1942,810.3,1942z M189.7,1909.3c18,0,32.7-14.6,32.7-32.7c0-18-14.6-32.7-32.7-32.7c-18,0-32.7,14.6-32.7,32.7C157,1894.7,171.6,1909.3,189.7,1909.3z M173.3,1386.7c9,0,16.3-7.3,16.3-16.3c0-9-7.3-16.3-16.3-16.3s-16.3,7.3-16.3,16.3C157,1379.4,164.3,1386.7,173.3,1386.7z M189.7,994.7c-18,0-32.7,14.6-32.7,32.7s14.6,32.7,32.7,32.7c18,0,32.7-14.6,32.7-32.7S207.7,994.7,189.7,994.7z M289.7,1027.3l-100,98v196h98l-98,131.7v299.1l134.4,124.5h315.8l170.5-160.3V1452l-99-127.6l99-2v-195l-98-100L289.7,1027.3z M810.3,994.7c-18,0-32.7,14.6-32.7,32.7s14.6,32.7,32.7,32.7c18,0,32.7-14.6,32.7-32.7S828.4,994.7,810.3,994.7z M826.7,1354c-9,0-16.3,7.3-16.3,16.3c0,9,7.3,16.3,16.3,16.3c9,0,16.3-7.3,16.3-16.3C843,1361.3,835.7,1354,826.7,1354z M810.3,1844c-18,0-32.7,14.6-32.7,32.7c0,18,14.6,32.7,32.7,32.7c18,0,32.7-14.6,32.7-32.7C843,1858.6,828.4,1844,810.3,1844z M580.7,1255l0-194h99l97,96v131.7h-96C647,1256,580.7,1255,580.7,1255L580.7,1255z M712.3,1256c18,0,32.7-14.6,32.7-32.7c0-18-14.6-32.7-32.7-32.7c-18,0-32.7,14.6-32.7,32.7C679.7,1241.4,694.3,1256,712.3,1256z M484.7,1255h-35.7l0.7,135.9l-143-101.9l-84.3-1.4v-126.6l98-101.1h164.3c0,0,64.3-3.1,64.3,64.3c0,46.1-1.1,64.6-1.1,64.6C547.9,1262.4,484.7,1255,484.7,1255L484.7,1255z M271.3,1223.3c-9,0-16.3,7.3-16.3,16.3s7.3,16.3,16.3,16.3c9,0,16.3-7.3,16.3-16.3S280.3,1223.3,271.3,1223.3z M336.7,1092.7c-9,0-16.3,7.3-16.3,16.3c0,9,7.3,16.3,16.3,16.3c9,0,16.3-7.3,16.3-16.3C353,1100,345.7,1092.7,336.7,1092.7z M467.3,1092.7c-9,0-16.3,7.3-16.3,16.3c0,9,7.3,16.3,16.3,16.3c9,0,16.3-7.3,16.3-16.3C483.7,1100,476.3,1092.7,467.3,1092.7z M319,1352.6l164.6,103.8c0.5-16.5,0.9-163.6,0.9-163.6s11.5-4,14.6-4c153.9,0,278.7,122.7,278.7,276.7S652.9,1844,499,1844c-153.9,0-278.7-124.8-278.7-278.7C220.3,1480,258.6,1403.7,319,1352.6L319,1352.6z M500.5,1650c46.2,0,83.7-37.5,83.7-83.7c0-46.2-37.5-83.7-83.7-83.7c-46.2,0-83.7,37.5-83.7,83.7C416.8,1612.6,454.3,1650,500.5,1650z"
         id="path10"
         style="fill:#666666;fill-opacity:1" /></g></g></svg>