<?xml version="1.0" encoding="UTF-8" standalone="no"?>
<svg
   xmlns:dc="http://purl.org/dc/elements/1.1/"
   xmlns:cc="http://creativecommons.org/ns#"
   xmlns:rdf="http://www.w3.org/1999/02/22-rdf-syntax-ns#"
   xmlns:svg="http://www.w3.org/2000/svg"
   xmlns="http://www.w3.org/2000/svg"
   xmlns:sodipodi="http://sodipodi.sourceforge.net/DTD/sodipodi-0.dtd"
   xmlns:inkscape="http://www.inkscape.org/namespaces/inkscape"
   version="1.1"
   x="0px"
   y="0px"
   viewBox="0 0 20 20"
   enable-background="new 0 0 1000 1000"
   xml:space="preserve"
   id="svg2"
   inkscape:version="0.91 r13725"
   sodipodi:docname="firewall.svg"
   width="20"
   height="20"><defs
     id="defs42" /><sodipodi:namedview
     pagecolor="#ffffff"
     bordercolor="#666666"
     borderopacity="1"
     objecttolerance="10"
     gridtolerance="10"
     guidetolerance="10"
     inkscape:pageopacity="0"
     inkscape:pageshadow="2"
     inkscape:window-width="1366"
     inkscape:window-height="663"
     id="namedview40"
     showgrid="false"
     inkscape:zoom="14.809"
     inkscape:cx="18.034256"
     inkscape:cy="14.282986"
     inkscape:window-x="-8"
     inkscape:window-y="-8"
     inkscape:window-maximized="1"
     inkscape:current-layer="svg2" /><metadata
     id="metadata4"> Svg Vector Icons : http://www.onlinewebfonts.com/icon <rdf:RDF><cc:Work
     rdf:about=""><dc:format>image/svg+xml</dc:format><dc:type
       rdf:resource="http://purl.org/dc/dcmitype/StillImage" /><dc:title></dc:title></cc:Work></rdf:RDF></metadata><g
     id="g6"
     transform="matrix(0.01895939,0,0,0.01895939,0.55928033,0.62915335)"
     style="fill:#ffffff"><g
       transform="matrix(0.1,0,0,-0.1,0,232)"
       id="g8"
       style="fill:#ffffff"><path
         d="M 4988.8,1838.9 C 3805.2,1601.4 2851.2,964.1 2229.7,-1.8 2031.8,-306.6 1881.4,-591.6 1881.4,-655 c 0,-23.8 269.2,-39.6 787.7,-39.6 902.6,0 902.6,0 760,324.6 -63.3,146.5 -102.9,186 -257.3,245.4 -170.2,67.3 -194,67.3 -257.3,7.9 -99,-91.1 -134.6,-79.2 -213.8,55.4 -87.1,146.5 -67.3,209.8 122.7,427.5 154.4,174.2 253.4,213.8 1266.7,467.1 l 289,75.2 285,-102.9 c 186.1,-67.3 312.7,-91 364.2,-71.2 43.5,15.8 106.9,31.7 138.5,31.7 91,4 803.6,-617.5 977.8,-847.1 79.2,-106.9 205.8,-265.2 277.1,-348.3 106.9,-122.7 126.7,-162.3 91,-209.8 -43.5,-47.5 134.6,-55.4 1231.1,-63.3 l 1282.6,-11.9 19.8,-150.4 c 19.8,-146.5 31.7,-158.3 253.4,-249.4 130.6,-51.5 249.4,-118.8 265.2,-142.5 67.3,-106.9 126.7,-720.4 106.9,-1128.2 -19.8,-399.8 -142.5,-965.9 -229.6,-1056.9 -19.8,-19.8 -106.9,79.2 -201.9,229.6 -87.1,142.5 -174.2,261.3 -190,261.3 -19.8,0 -19.8,-684.9 7.9,-1524 l 7.9,-316.7 146.5,225.6 c 657.1,1009.4 855,2264.3 542.3,3396.4 C 9521.2,-322.4 8971,497 8278.2,1023.5 7724,1447.1 7146.1,1704.4 6449.4,1835 c -518.5,98.9 -973.7,98.9 -1460.6,3.9 z m 1334,-245.4 c 213.7,-47.5 387.9,-99 387.9,-110.8 0,-11.9 -75.2,-99 -170.2,-190 l -166.3,-162.3 -498.8,-27.7 -494.8,-27.7 -304.8,194 c -166.3,106.9 -304.8,205.8 -304.8,221.7 0,47.5 692.7,174.2 1029.2,186 75.3,-0.1 312.8,-35.7 522.6,-83.2 z M 8472.3,473.2 c 186.1,-154.4 874.8,-1116.3 835.2,-1155.9 -7.9,-11.9 -154.4,51.5 -324.6,138.5 l -312.7,154.4 -150.4,-99 c -122.7,-83.1 -170.2,-91.1 -273.2,-63.3 l -122.7,35.6 -7.9,475 c -7.9,344.4 3.9,506.7 47.5,585.8 27.7,59.4 63.3,106.9 79.2,106.9 11.9,0.1 114.8,-79 229.6,-178 z"
         id="path10"
         inkscape:connector-curvature="0"
         style="fill:#ffffff" /><path
         d="m 923.4,-999.4 -823.4,-11.8 0,-672.9 0,-672.9 1326.1,0 1326.1,0 -7.9,684.8 -11.9,680.9 -494.8,0 c -273.1,3.8 -862.9,-4.1 -1314.2,-8.1 z"
         id="path12"
         inkscape:connector-curvature="0"
         style="fill:#ffffff" /><path
         d="m 2989.7,-1660.4 0,-696.7 1345.9,0 1345.9,0 0,672.9 0,672.9 -1041.1,0 c -574,0 -1179.7,11.9 -1345.9,23.8 l -304.8,27.7 0,-700.6 z"
         id="path14"
         inkscape:connector-curvature="0"
         style="fill:#ffffff" /><path
         d="m 6109,-999.4 -150.4,-15.8 0,-672.9 0,-669 1345.9,0 1345.9,0 0,669 0,669 -122.7,23.8 c -130.6,23.7 -2165.3,19.7 -2418.7,-4.1 z"
         id="path16"
         inkscape:connector-curvature="0"
         style="fill:#ffffff" /><path
         d="m 107.9,-3311.1 11.9,-672.9 593.8,0 593.8,0 11.9,672.9 7.9,676.9 -613.6,0 -613.6,0 7.9,-676.9 z"
         id="path18"
         inkscape:connector-curvature="0"
         style="fill:#ffffff" /><path
         d="m 1635.9,-3323 11.9,-684.9 1322.1,-7.9 1326.1,-7.9 0,692.7 0,696.7 -1334,0 -1338,0 11.9,-688.7 z"
         id="path20"
         inkscape:connector-curvature="0"
         style="fill:#ffffff" /><path
         d="m 4612.7,-3330.9 0,-696.7 1338,23.8 1334,27.7 11.9,669 7.9,672.9 -1345.9,0 -1345.9,0 0,-696.7 z"
         id="path22"
         inkscape:connector-curvature="0"
         style="fill:#ffffff" /><path
         d="m 7542,-3303.2 c 0,-574 7.9,-672.9 63.3,-692.7 35.6,-11.9 285,-23.7 554.2,-23.7 l 490.9,0 0,692.8 0,692.7 -554.2,0 -554.2,0 0,-669.1 z"
         id="path24"
         inkscape:connector-curvature="0"
         style="fill:#ffffff" /><path
         d="m 107.9,-4938.1 11.9,-684.8 1290.5,-11.9 1290.5,-7.9 23.7,324.6 c 15.8,182.1 27.7,494.8 27.7,696.7 l 0,364.2 -1326.1,0 -1326.1,0 7.9,-680.9 z"
         id="path26"
         inkscape:connector-curvature="0"
         style="fill:#ffffff" /><path
         d="m 2997.7,-4938.1 11.9,-684.8 1338,-11.9 1334,-7.9 0,692.7 0,692.8 -1346,0 -1345.9,0 8,-680.9 z"
         id="path28"
         inkscape:connector-curvature="0"
         style="fill:#ffffff" /><path
         d="m 5958.6,-4950 0,-692.7 1338,7.9 1334,11.9 11.9,684.8 7.9,680.9 -1345.9,0 -1345.9,0 0,-692.8 z"
         id="path30"
         inkscape:connector-curvature="0"
         style="fill:#ffffff" /><path
         d="m 107.9,-6561.1 11.9,-684.8 605.6,-11.9 601.7,-11.9 0,696.7 0,692.7 -613.5,0 -613.6,0 7.9,-680.8 z"
         id="path32"
         inkscape:connector-curvature="0"
         style="fill:#ffffff" /><path
         d="m 1604.2,-6572.9 0,-692.7 1345.9,0 1345.9,0 0,692.7 0,692.7 -1345.9,0 -1345.9,0 0,-692.7 z"
         id="path34"
         inkscape:connector-curvature="0"
         style="fill:#ffffff" /><path
         d="m 4581.1,-6561.1 11.9,-684.8 1345.9,0 1345.9,0 11.9,684.8 7.9,680.9 -1365.8,0 -1365.7,0 8,-680.9 z"
         id="path36"
         inkscape:connector-curvature="0"
         style="fill:#ffffff" /><path
         d="m 7550,-6561.1 11.9,-684.8 534.4,0 534.4,0 11.9,684.8 7.9,680.9 -554.2,0 -554.3,0 8,-680.9 z"
         id="path38"
         inkscape:connector-curvature="0"
         style="fill:#ffffff" /></g></g></svg>