<svg version="1.1" xmlns="http://www.w3.org/2000/svg" xmlns:xlink="http://www.w3.org/1999/xlink" x="0px" y="0px" viewBox="0 0 1000 1000" enable-background="new 0 0 1000 1000" xml:space="preserve">
<metadata> Svg Vector Icons : http://www.onlinewebfonts.com/icon </metadata>
  <g><g transform="translate(0.000000,250.000000) scale(0.100000,-0.100000)"><path d="M4565.3,2336.9c-54.6-7.8-229.9-35.1-389.7-58.5c-939.2-136.4-1940.8-650.8-2650.1-1364c-1859-1858.9-1905.7-4820.8-105.2-6722.6c744.4-787.2,1683.6-1293.9,2743.6-1477c717.1-124.7,1710.9-54.5,2389,175.4c2572.1,861.3,3947.8,3601,3094.3,6149.7C9008,957.3,7203.7,2282.3,5149.9,2340.8C4880.9,2348.6,4619.8,2348.6,4565.3,2336.9z M5753.9,1651C6599.6,1510.7,7558.3,988.5,8135.1,361C9117.1-714.6,9487.4-2172.1,9125-3582.9c-101.3-393.6-440.4-1091.2-693.7-1422.5C7819.4-5808.1,7028.3-6334.2,6015-6611c-253.3-70.1-413.1-81.8-1001.6-81.8c-639.1-3.9-736.6,7.8-1083.4,101.3c-432.6,116.9-993.8,370.2-1356.2,611.9c-323.5,218.3-908,806.7-1118.5,1130.2c-448.2,682-662.5,1336.7-697.6,2127.9c-27.3,604,23.4,1024.9,183.2,1504.3C1615.1,813.1,3626,2009.5,5753.9,1651z"></path><path d="M2566,302.6c-58.5-66.3-66.3-296.2-66.3-2490.3c0-2408.4,0-2416.2,81.8-2490.3c74-66.3,148.1-74.1,744.4-74.1c654.7,0,662.5,0,736.6,93.6c54.6,66.3,70.1,128.6,54.6,194.9c-42.9,175.4-116.9,198.7-631.3,198.7h-479.3v2065.5v2065.5h1251h1251l483.2-456l483.3-456v-401.4c0-350.7,11.7-413.1,77.9-479.3c42.9-42.9,120.8-77.9,175.4-77.9c54.5,0,132.5,35.1,175.4,77.9c70.1,70.1,77.9,128.6,77.9,576.8v494.9L6358-239.1l-623.5,611.9H4183.3C2725.8,372.7,2624.5,368.8,2566,302.6z"></path><path d="M6833.4-2635.9c-46.8-23.4-222.1-233.8-385.8-467.7c-163.7-233.8-307.9-409.2-323.5-393.6c-15.6,15.6-144.2,202.7-288.4,409.2c-144.2,210.5-292.3,397.5-335.1,420.9c-136.4,74.1-300.1,46.8-385.8-62.3c-77.9-101.3-81.8-148.1-81.8-1223.7c0-1075.6,3.9-1122.4,81.8-1223.7c58.5-74.1,116.9-101.3,206.5-101.3c237.8,0,253.3,58.5,265,861.3l11.7,717.1l167.6-265c272.8-432.6,459.9-436.5,748.3-23.4l175.4,249.4l19.5-713.2c19.5-650.8,27.3-721,93.5-771.6c109.2-77.9,284.5-66.3,374.2,23.4c74,74.1,77.9,128.6,77.9,1184.7c0,685.9-15.6,1149.7-42.9,1223.7c-27.2,77.9-81.8,132.5-159.8,159.8c-66.3,23.4-120.8,42.9-124.7,39C6923.1-2593,6884.1-2612.5,6833.4-2635.9z"></path></g></g></svg>