<?xml version="1.0" encoding="UTF-8" standalone="no"?>
<svg
   xmlns:dc="http://purl.org/dc/elements/1.1/"
   xmlns:cc="http://creativecommons.org/ns#"
   xmlns:rdf="http://www.w3.org/1999/02/22-rdf-syntax-ns#"
   xmlns:svg="http://www.w3.org/2000/svg"
   xmlns="http://www.w3.org/2000/svg"
   xmlns:sodipodi="http://sodipodi.sourceforge.net/DTD/sodipodi-0.dtd"
   xmlns:inkscape="http://www.inkscape.org/namespaces/inkscape"
   version="1.1"
   x="0px"
   y="0px"
   viewBox="0 0 20 20"
   enable-background="new 0 0 1000 1000"
   xml:space="preserve"
   id="svg2"
   inkscape:version="0.91 r13725"
   sodipodi:docname="apache.svg"
   width="20"
   height="20"><defs
     id="defs12" /><sodipodi:namedview
     pagecolor="#ffffff"
     bordercolor="#666666"
     borderopacity="1"
     objecttolerance="10"
     gridtolerance="10"
     guidetolerance="10"
     inkscape:pageopacity="0"
     inkscape:pageshadow="2"
     inkscape:window-width="1366"
     inkscape:window-height="663"
     id="namedview10"
     showgrid="false"
     inkscape:zoom="20.534043"
     inkscape:cx="6.4218017"
     inkscape:cy="11.113273"
     inkscape:window-x="-8"
     inkscape:window-y="-8"
     inkscape:window-maximized="1"
     inkscape:current-layer="svg2" /><metadata
     id="metadata4"> Svg Vector Icons : http://www.onlinewebfonts.com/icon <rdf:RDF><cc:Work
     rdf:about=""><dc:format>image/svg+xml</dc:format><dc:type
       rdf:resource="http://purl.org/dc/dcmitype/StillImage" /><dc:title /></cc:Work></rdf:RDF></metadata><g
     id="g6"
     transform="matrix(0.01710903,0,0,0.01707407,1.8064664,1.4503397)"
     style="fill:#5e5e5e;fill-opacity:1"><path
       d="m 122.7,255.6 c 12.1,-6.3 27.2,-1.5 33.2,10.8 1.8,3.3 143.8,276.1 391.3,425.2 C 718.4,795 893.2,876.7 988.5,918.9 997,885.5 971.1,870.9 897,796.7 853.4,753.2 790,673 722.9,591.3 c -67.6,23.6 -151.1,24.9 -168.2,24.9 -0.5,0 -1,0 -1.5,0 -13.6,0 -24.6,-11.1 -24.6,-24.9 0,-13.6 11.1,-24.6 24.6,-24.6 0,0 0,0 0.3,0 2.8,0 42,-0.3 86.3,-6.8 17.9,-2.8 34.2,-6 48.8,-10.1 -16.8,-20.1 -33.7,-40 -50.3,-58.8 -34.2,4 -70.2,5.3 -102.3,5.3 -58.8,0 -105.9,-4.3 -109.6,-4.8 -13.6,-1.3 -23.6,-13.3 -22.1,-26.9 1.3,-13.6 13.3,-23.6 26.9,-22.4 1.3,0 83.7,7.8 165.7,2.8 C 569,415.3 542.3,389.2 517.9,369.8 401,275.8 229.5,201.6 115.8,206.6 L 51.4,40.6 C 47.2,30 35.4,24.5 24.6,28 13,31.8 7,44.6 11.5,55.9 l 64.4,167 c 0,0 -178,260.5 171.5,524 C 554.9,979 867.7,994.1 956,958.4 856.9,914.1 687.4,833.7 521.2,733.6 261,576.9 117.4,300.3 111.3,288.5 c -5.5,-11.8 -0.7,-26.6 11.4,-32.9 z"
       id="path8"
       inkscape:connector-curvature="0"
       style="fill:#5e5e5e;fill-opacity:1" /></g></svg>