<?xml version="1.0" encoding="UTF-8" standalone="no"?>
<svg
   xmlns:dc="http://purl.org/dc/elements/1.1/"
   xmlns:cc="http://creativecommons.org/ns#"
   xmlns:rdf="http://www.w3.org/1999/02/22-rdf-syntax-ns#"
   xmlns:svg="http://www.w3.org/2000/svg"
   xmlns="http://www.w3.org/2000/svg"
   xmlns:sodipodi="http://sodipodi.sourceforge.net/DTD/sodipodi-0.dtd"
   xmlns:inkscape="http://www.inkscape.org/namespaces/inkscape"
   version="1.1"
   x="0px"
   y="0px"
   viewBox="0 0 1000 1000"
   enable-background="new 0 0 1000 1000"
   xml:space="preserve"
   id="svg2"
   inkscape:version="0.91 r13725"
   sodipodi:docname="app4.svg"><defs
     id="defs16" /><sodipodi:namedview
     pagecolor="#ffffff"
     bordercolor="#666666"
     borderopacity="1"
     objecttolerance="10"
     gridtolerance="10"
     guidetolerance="10"
     inkscape:pageopacity="0"
     inkscape:pageshadow="2"
     inkscape:window-width="686"
     inkscape:window-height="480"
     id="namedview14"
     showgrid="false"
     inkscape:zoom="0.236"
     inkscape:cx="500"
     inkscape:cy="500"
     inkscape:window-x="0"
     inkscape:window-y="0"
     inkscape:window-maximized="0"
     inkscape:current-layer="svg2" /><metadata
     id="metadata4"> Svg Vector Icons : http://www.onlinewebfonts.com/icon <rdf:RDF><cc:Work
     rdf:about=""><dc:format>image/svg+xml</dc:format><dc:type
       rdf:resource="http://purl.org/dc/dcmitype/StillImage" /></cc:Work></rdf:RDF></metadata><g
     id="g6"
     style="fill:#666666"><path
       d="M23.1,259.4c-13.1,0-16.3,9.8-9.8,19.6l160.2,186.4c9.8,9.8,26.2,19.6,42.5,19.6h209.2L176.7,269.2L23.1,259.4z"
       id="path8"
       style="fill:#666666" /><path
       d="M977.8,233.2L647.5,131.9c-13.1-3.3-32.7,0-42.5,9.8l-58.8,58.9l-3.3,3.3l-62.1-78.5c-3.3-13.1-19.6-22.9-32.7-19.6l-291,39.2c-16.3,0-22.9,13.1-16.3,26.2l36,101.4l372.7-42.5c0,0,3.3,0,3.3,3.3l287.7,127.5L418.7,485L520,638.6c6.5,13.1,22.9,19.6,39.2,13.1l398.9-127.5c13.1-3.3,16.3-16.3,6.5-26.2l-85-134c3.3-3.3,9.8-3.3,13.1-6.5l91.5-94.8C994.1,249.6,990.8,239.8,977.8,233.2z"
       id="path10"
       style="fill:#666666" /><path
       d="M549.5,687.7c-13.1,3.3-29.4-3.3-36-13.1l-98.1-160.2H196.4v71.9c0,9.8,6.5,26.2,13.1,32.7L435,887.1c6.5,6.5,19.6,9.8,29.4,6.5L811,756.3c9.8-3.3,19.6-16.3,19.6-26.2L847,592.9L549.5,687.7z"
       id="path12"
       style="fill:#666666" /></g></svg>