<?xml version="1.0" encoding="UTF-8" standalone="no"?>
<svg
   xmlns:dc="http://purl.org/dc/elements/1.1/"
   xmlns:cc="http://creativecommons.org/ns#"
   xmlns:rdf="http://www.w3.org/1999/02/22-rdf-syntax-ns#"
   xmlns:svg="http://www.w3.org/2000/svg"
   xmlns="http://www.w3.org/2000/svg"
   xmlns:sodipodi="http://sodipodi.sourceforge.net/DTD/sodipodi-0.dtd"
   xmlns:inkscape="http://www.inkscape.org/namespaces/inkscape"
   version="1.1"
   x="0px"
   y="0px"
   viewBox="0 0 1000 1000"
   enable-background="new 0 0 1000 1000"
   xml:space="preserve"
   id="svg2"
   inkscape:version="0.91 r13725"
   sodipodi:docname="cpu.svg"><defs
     id="defs20" /><sodipodi:namedview
     pagecolor="#ffffff"
     bordercolor="#666666"
     borderopacity="1"
     objecttolerance="10"
     gridtolerance="10"
     guidetolerance="10"
     inkscape:pageopacity="0"
     inkscape:pageshadow="2"
     inkscape:window-width="1366"
     inkscape:window-height="663"
     id="namedview18"
     showgrid="false"
     inkscape:zoom="0.46278125"
     inkscape:cx="500"
     inkscape:cy="500"
     inkscape:window-x="-8"
     inkscape:window-y="-8"
     inkscape:window-maximized="1"
     inkscape:current-layer="svg2" /><metadata
     id="metadata4"> Svg Vector Icons : http://www.onlinewebfonts.com/icon <rdf:RDF><cc:Work
     rdf:about=""><dc:format>image/svg+xml</dc:format><dc:type
       rdf:resource="http://purl.org/dc/dcmitype/StillImage" /></cc:Work></rdf:RDF></metadata><g
     id="g6"
     style="fill:#666666;fill-opacity:1"><path
       d="M990,289.6v-64.3h-74.5v-64.7c0-41.7-33.9-75.5-75.5-75.5h-65.3V9.9h-64.3v75.2H613V9.9h-64.3v75.2h-97.4V9.9H387v75.2h-97.4V9.9h-64.3v75.2H84.5v140.2H10v64.3h74.5V387H10v64.3h74.5v97.4H10V613h74.5v97.4H10v64.4h74.5v65.7c0,41.8,33.9,75.6,75.6,75.6h65.2v74h64.3V916H387v74h64.3v-74h97.3v74H613v-74h97.3v74h64.3v-74h140.8V774.7h74.5v-64.4h-74.5v-97.4h74.5v-64.2h-74.5v-97.4h74.5V387h-74.5v-97.4H990z M836.3,836.7H163.7V164.3h672.5V836.7z"
       id="path8"
       style="fill:#666666;fill-opacity:1" /><path
       d="M251.2,251.7h215.3v215.9H251.2V251.7L251.2,251.7z"
       id="path10"
       style="fill:#666666;fill-opacity:1" /><path
       d="M533,251.7h215.8v215.9H533V251.7L533,251.7z"
       id="path12"
       style="fill:#666666;fill-opacity:1" /><path
       d="M533,534.2h215.8v213.9H533V534.2z"
       id="path14"
       style="fill:#666666;fill-opacity:1" /><path
       d="M251.2,534.2h215.3v213.9H251.2V534.2z"
       id="path16"
       style="fill:#666666;fill-opacity:1" /></g></svg>