<?xml version="1.0" encoding="UTF-8" standalone="no"?>
<svg
   xmlns:dc="http://purl.org/dc/elements/1.1/"
   xmlns:cc="http://creativecommons.org/ns#"
   xmlns:rdf="http://www.w3.org/1999/02/22-rdf-syntax-ns#"
   xmlns:svg="http://www.w3.org/2000/svg"
   xmlns="http://www.w3.org/2000/svg"
   xmlns:sodipodi="http://sodipodi.sourceforge.net/DTD/sodipodi-0.dtd"
   xmlns:inkscape="http://www.inkscape.org/namespaces/inkscape"
   width="20"
   height="20"
   viewBox="0 0 20 20"
   id="svg2"
   version="1.1"
   inkscape:version="0.91 r13725"
   sodipodi:docname="java.svg">
  <metadata
     id="metadata20">
    <rdf:RDF>
      <cc:Work
         rdf:about="">
        <dc:format>image/svg+xml</dc:format>
        <dc:type
           rdf:resource="http://purl.org/dc/dcmitype/StillImage" />
        <dc:title />
      </cc:Work>
    </rdf:RDF>
  </metadata>
  <defs
     id="defs18" />
  <sodipodi:namedview
     pagecolor="#ffffff"
     bordercolor="#666666"
     borderopacity="1"
     objecttolerance="10"
     gridtolerance="10"
     guidetolerance="10"
     inkscape:pageopacity="0"
     inkscape:pageshadow="2"
     inkscape:window-width="1366"
     inkscape:window-height="663"
     id="namedview16"
     showgrid="false"
     inkscape:zoom="20.052776"
     inkscape:cx="10.556051"
     inkscape:cy="1.6916485"
     inkscape:window-x="-8"
     inkscape:window-y="-8"
     inkscape:window-maximized="1"
     inkscape:current-layer="svg2" />
  <g
     id="g4"
     style="fill:#5e5e5e;fill-opacity:1"
     transform="matrix(0.0386031,0,0,0.0386031,-0.09176518,-0.03779462)">
    <path
       d="m 303.242,16 c 0,0 16.291,27.594 13.032,46.055 -3.257,18.461 -7.054,31.039 -44.522,64.703 -37.457,33.664 -50.488,45.055 -50.488,66.242 0,26.602 40.721,76.008 40.721,76.008 0,0 -66.16,-40.68 -66.16,-87.382 0,-31.492 37.814,-49.984 60.402,-69.531 C 278.813,92.556 297.813,76.806 302.161,55.634 306.502,34.453 303.242,16 303.242,16 Z"
       id="path6"
       inkscape:connector-curvature="0"
       style="fill:#5e5e5e;fill-opacity:1" />
    <path
       d="m 359.714,109.93 c 0,0 -75.474,43.438 -75.474,74.891 0,22.835 27.15,33.148 26.062,54.867 -1.082,21.727 -26.602,40.727 -38.551,43.984 0,0 14.119,-13.023 14.119,-27.148 0,-25.523 -34.008,-48.359 -30.693,-69.5 4.092,-26.055 30.619,-43.328 47.525,-54.297 20.088,-13.032 57.012,-22.797 57.012,-22.797 z m 2.891,163.968 c 1.271,1.266 6.882,-3.977 17.554,-3.258 7.063,0.484 25.704,6.336 26.063,28.953 0.361,22.633 -27.688,39.641 -33.477,43.438 -5.795,3.805 -21.184,10.133 -19.369,11.219 1.809,1.094 26.244,-6.508 34.931,-10.672 8.684,-4.164 38.004,-20.633 37.823,-45.25 -0.182,-24.609 -24.613,-38.367 -48.861,-32.391 -10.413,2.555 -14.664,7.961 -14.664,7.961 z"
       id="path8"
       inkscape:connector-curvature="0"
       style="fill:#5e5e5e;fill-opacity:1" />
    <path
       d="m 203.342,269.007 c 0.539,1.078 -15.07,2.031 -33.342,10.914 -15.01,7.289 -4.973,12.453 3.211,15.422 30.676,11.133 107.049,11.133 180.019,-9.32 -21.211,17.195 -74.052,32.391 -130.158,32.391 -46.693,0 -98.818,-11.938 -98.818,-26.695 0,-9.133 17.637,-13.086 30.596,-16.695 15.562,-4.353 47.771,-7.462 48.492,-6.017 z m -16.108,52.938 c 0,0 -13.371,12.875 3.986,18.555 42.346,13.859 104.607,5.781 125.484,-7.414 0,0 11.518,9.5 20.477,12.211 0,0 -42.802,25.703 -103.253,21.625 -46.875,-3.156 -73.748,-11.312 -73.748,-28.414 0,-13.93 27.054,-16.563 27.054,-16.563 z m 7.422,49.406 c 0,0 -20.629,1.633 -20.629,15.477 0,10.875 21.172,28.234 74.652,26.875 53.48,-1.359 83.339,-20.086 83.339,-20.086 0,0 -21.173,-7.602 -26.601,-13.844 0,0 -18.82,16.477 -59.574,15.383 -23.605,-0.633 -63.13,-6.422 -51.187,-23.805 z"
       id="path10"
       inkscape:connector-curvature="0"
       style="fill:#5e5e5e;fill-opacity:1" />
    <path
       d="m 157.555,406.375 c 0,0 -42.348,7.406 -41.625,20.273 0.51,9.102 51.646,19.938 137.096,19.539 78.994,-0.359 149.58,-8.688 144.511,-36.555 0,0 15.08,9.062 5.43,20.633 -13.285,15.922 -61.416,34.781 -165.781,34.062 C 132.821,463.6 84.8,447.296 85.888,430.632 c 1.087,-16.656 51.036,-29.687 71.667,-24.257 z"
       id="path12"
       inkscape:connector-curvature="0"
       style="fill:#5e5e5e;fill-opacity:1" />
    <path
       d="m 423.417,438.062 c 0,0 -33.736,28.976 -121.8,38.898 -51.719,5.828 -100.988,3.984 -157.271,-11.383 15.834,19.344 73.912,37.133 154.014,27.922 109.311,-12.555 120.712,-44.937 125.057,-55.437 z"
       id="path14"
       inkscape:connector-curvature="0"
       style="fill:#5e5e5e;fill-opacity:1" />
  </g>
</svg>
