<?xml version="1.0" encoding="UTF-8" standalone="no"?>
<svg
   xmlns:dc="http://purl.org/dc/elements/1.1/"
   xmlns:cc="http://creativecommons.org/ns#"
   xmlns:rdf="http://www.w3.org/1999/02/22-rdf-syntax-ns#"
   xmlns:svg="http://www.w3.org/2000/svg"
   xmlns="http://www.w3.org/2000/svg"
   xmlns:sodipodi="http://sodipodi.sourceforge.net/DTD/sodipodi-0.dtd"
   xmlns:inkscape="http://www.inkscape.org/namespaces/inkscape"
   version="1.1"
   x="0px"
   y="0px"
   viewBox="0 0 20 20"
   enable-background="new 0 0 1000 1000"
   xml:space="preserve"
   id="svg2"
   inkscape:version="0.91 r13725"
   sodipodi:docname="kafka.svg"
   width="20"
   height="20"><defs
     id="defs12" /><sodipodi:namedview
     pagecolor="#ffffff"
     bordercolor="#666666"
     borderopacity="1"
     objecttolerance="10"
     gridtolerance="10"
     guidetolerance="10"
     inkscape:pageopacity="0"
     inkscape:pageshadow="2"
     inkscape:window-width="1366"
     inkscape:window-height="663"
     id="namedview10"
     showgrid="false"
     inkscape:zoom="20.534043"
     inkscape:cx="16.381078"
     inkscape:cy="1.7575976"
     inkscape:window-x="-8"
     inkscape:window-y="-8"
     inkscape:window-maximized="1"
     inkscape:current-layer="svg2" /><metadata
     id="metadata4"> Svg Vector Icons : http://www.onlinewebfonts.com/icon <rdf:RDF><cc:Work
     rdf:about=""><dc:format>image/svg+xml</dc:format><dc:type
       rdf:resource="http://purl.org/dc/dcmitype/StillImage" /><dc:title /></cc:Work></rdf:RDF></metadata><g
     id="g6"
     transform="matrix(0.0203244,0,0,0.0189705,0.2438487,0.73516754)"
     style="fill:#5e5e5e;fill-opacity:1"><path
       d="m 674.2,552.7 c -38.2,0 -72.4,17 -95.9,43.6 l -60.1,-42.5 c 6.5,-17.4 10.1,-36.4 10.1,-56.1 0,-19.5 -3.6,-38 -9.6,-55.2 l 59.9,-42 c 23.5,26.4 57.5,43.4 95.7,43.4 70.4,0 127.7,-57.2 127.7,-127.7 0,-70.4 -57.2,-127.7 -127.7,-127.7 -70.4,0 -127.7,57.2 -127.7,127.7 0,12.5 2,24.8 5.4,36.2 l -60.1,42 c -25,-31.1 -61.3,-52.8 -102.2,-59.5 l 0,-72.2 C 447.6,250.4 491.2,199 491.2,137.7 491.1,67.2 433.8,10 363.4,10 293,10 235.7,67.2 235.7,137.7 c 0,60.6 42.5,111.3 99.3,124.5 l 0,73.1 c -77.8,13.4 -136.8,80.9 -136.8,162.3 0,81.6 59.7,149.4 137.5,162.5 l 0,77.4 c -57.2,12.5 -100.4,63.7 -100.4,124.8 0,70.4 57.2,127.7 127.7,127.7 70.4,0 128.1,-57.2 128.1,-127.9 0,-61 -43.2,-112.2 -100.4,-124.8 l 0,-77.3 c 40.2,-6.7 75.6,-27.9 100.4,-58.4 l 60.4,42.7 c -3.4,11.4 -5.1,23.5 -5.1,36 0,70.4 57.2,127.7 127.7,127.7 70.4,0 127.7,-57.2 127.7,-127.7 -0.2,-70.4 -57.2,-127.6 -127.6,-127.6 l 0,0 z m 0,-298.8 c 34.2,0 61.9,27.7 61.9,61.9 0,34.2 -27.7,61.9 -61.9,61.9 -34.2,0 -62.2,-27.7 -62.2,-61.9 0,-34.1 28,-61.9 62.2,-61.9 l 0,0 z m -373,-116.2 c 0,-34.2 27.7,-61.9 61.9,-61.9 34.2,0 61.9,27.7 61.9,61.9 0,34.2 -27.7,61.9 -61.9,61.9 -34.1,0 -61.9,-27.9 -61.9,-61.9 l 0,0 z m 123.9,724.4 c 0,34.2 -27.7,61.9 -61.9,61.9 -34.2,0 -61.9,-27.7 -61.9,-61.9 0,-34.2 27.7,-61.9 61.9,-61.9 34.2,0 61.9,27.9 61.9,61.9 l 0,0 z M 363.2,584 c -47.6,0 -86.3,-38.7 -86.3,-86.3 0,-47.6 38.7,-86.3 86.3,-86.3 47.6,0 86.3,38.7 86.3,86.3 0.2,47.6 -38.7,86.3 -86.3,86.3 l 0,0 z m 311,158.5 c -34.2,0 -61.9,-27.7 -61.9,-61.9 0,-34.2 27.7,-61.9 61.9,-61.9 34.2,0 61.9,27.7 61.9,61.9 0,34.2 -27.9,61.9 -61.9,61.9 l 0,0 z"
       id="path8"
       inkscape:connector-curvature="0"
       style="fill:#5e5e5e;fill-opacity:1" /></g></svg>