<?xml version="1.0" encoding="UTF-8" standalone="no"?>
<svg
   xmlns:dc="http://purl.org/dc/elements/1.1/"
   xmlns:cc="http://creativecommons.org/ns#"
   xmlns:rdf="http://www.w3.org/1999/02/22-rdf-syntax-ns#"
   xmlns:svg="http://www.w3.org/2000/svg"
   xmlns="http://www.w3.org/2000/svg"
   xmlns:sodipodi="http://sodipodi.sourceforge.net/DTD/sodipodi-0.dtd"
   xmlns:inkscape="http://www.inkscape.org/namespaces/inkscape"
   version="1.1"
   x="0px"
   y="0px"
   viewBox="0 0 1000 1000"
   enable-background="new 0 0 1000 1000"
   xml:space="preserve"
   id="svg2"
   inkscape:version="0.91 r13725"
   sodipodi:docname="networkif_circle.svg"><defs
     id="defs14" /><sodipodi:namedview
     pagecolor="#ffffff"
     bordercolor="#666666"
     borderopacity="1"
     objecttolerance="10"
     gridtolerance="10"
     guidetolerance="10"
     inkscape:pageopacity="0"
     inkscape:pageshadow="2"
     inkscape:window-width="1366"
     inkscape:window-height="663"
     id="namedview12"
     showgrid="false"
     inkscape:zoom="0.46278125"
     inkscape:cx="500"
     inkscape:cy="500"
     inkscape:window-x="-8"
     inkscape:window-y="-8"
     inkscape:window-maximized="1"
     inkscape:current-layer="svg2" /><metadata
     id="metadata4"> Svg Vector Icons : http://www.onlinewebfonts.com/icon <rdf:RDF><cc:Work
     rdf:about=""><dc:format>image/svg+xml</dc:format><dc:type
       rdf:resource="http://purl.org/dc/dcmitype/StillImage" /></cc:Work></rdf:RDF></metadata><g
     id="g6"
     style="fill:#666666;fill-opacity:1"><path
       d="M10,522.5c0-15,0-30,0-45c0.4-2.6,0.9-5.2,1-7.8c2.2-39.6,9.2-78.4,21.1-116.2c27.7-87.8,75.9-162.4,145.1-223.2c72-63.2,155.6-101.9,250.3-116.4c11.6-1.8,23.2-3,34.8-4.5c24.7,0,49.4,0,74.2,0c1.6,0.3,3.1,0.9,4.7,1c39.2,3,77.4,10.8,114.5,23.6C771.7,74,861,147,923.4,252.7c33.1,56.1,53.7,116.7,62,181.4c1.9,14.4,3.1,28.9,4.6,43.4c0,15,0,30,0,45c-0.4,2.6-0.9,5.1-1.1,7.7c-2.3,39.4-9.2,78-21.1,115.6c-28.2,89-77.3,164.5-148.1,225.5C744.3,936.4,657,974.9,558.1,987c-11.6,1.4-23.3,2.4-35,3.6c-15.4,0-30.8,0-46.2,0c-2-0.3-3.9-0.8-5.9-1c-17.9-2.1-36-3.2-53.7-6.3c-122.2-21.6-222.3-81.1-300-177.6C58.7,733,24.5,649.6,13.5,556.8C12.1,545.4,11.2,533.9,10,522.5z M928.7,499.6C929,263,737.1,70.5,500.4,70c-236.4-0.4-429,192.3-429,429.4C71.3,736.4,262.6,928.3,499.6,929C735.8,929.8,928.3,737.1,928.7,499.6z"
       style="fill:#666666;fill-opacity:1"
       id="path8" /><path
       d="M583.1,400.8c0-13.4,0-26.3,0-39.7c-2.4-0.1-4.4-0.3-6.4-0.3c-51.5,0-102.9,0-154.4,0.1c-15.1,0-29.9,1.7-44.2,7c-23.6,8.8-35.9,26-37.5,50.9c-0.4,6.7,0.1,13.4,0.2,20c0.1,9.4,4.6,16.6,13.3,19c10.4,2.8,21.3,4.1,32.1,4.9c14.1,1.1,28.3,0.1,42.4,1.5c47.4,4.6,94.2,12.7,140.3,25.2c51.1,13.9,88.3,44.4,113.8,90.1c0.5,1,0.8,2.2,0.8,3.3c0.2,14.4,0.4,28.8,0.5,43.1c0.1,41.8-20.5,69.6-58.4,85.2c-30.6,12.6-62.8,15-95.5,13.6c-4.4-0.2-8.9-0.5-13.4-0.5c-89.6,0-179.1,0-268.7,0c-2.4,0-4.8,0-7.6,0c0-13.6,0-26.6,0-40.3c2.8,0,5.4,0,8,0c110.6,0,221.3,0,331.9,0c26,0,46.4-9.8,59.5-32.8c2.2-3.9,3.9-8.6,4.1-13c0.8-16.2,1.1-32.4,1-48.5c0-3.4-2.1-7.4-4.5-10.1c-23.7-27.1-54.4-43-87.7-54.4c-40.2-13.7-81.8-19.9-124-22.1c-20-1.1-40.1-1-60.1-1c-24.9,0-44.5-10.2-56.1-31.9c-29-54-7.3-114.5,42.2-139.2c20-10,41.6-12.8,63.9-10.8c2.2,0.2,4.4,0.4,6.7,0.4c50.5,0,100.9,0,151.4,0c2,0,3.9,0,6.4,0c0-13.6,0-26.5,0-40.1c20.2,0,40,0,59.5,0c2.6-11.8,3.7-18.8-18.7-21c0.9-5.5-2.4-8.6-6.8-10.5c-11.7-4.9-15.5-13.5-13.8-25.8c1-7.5,0.2-15.3,0.2-23.4c6.8,0,13.2,0,20.2,0c0,6.6,0,12.9,0,19.8c13.6,0,26.5,0,40.2,0c0,6.8,0,13.1,0,20.2c13.8,0,26.9,0,40.4,0c0,6.9,0,13.2,0,20.1c6.8,0,13.2,0,20.3,0c0,7,0,13.4,0,20.3c13.7,0,26.6,0,39.9,0c0,40.5,0,80.5,0,120.8C704.1,400.8,644.1,400.8,583.1,400.8z"
       style="fill:#666666;fill-opacity:1"
       id="path10" /></g></svg>