<?xml version="1.0" encoding="UTF-8" standalone="no"?>
<svg
   xmlns:dc="http://purl.org/dc/elements/1.1/"
   xmlns:cc="http://creativecommons.org/ns#"
   xmlns:rdf="http://www.w3.org/1999/02/22-rdf-syntax-ns#"
   xmlns:svg="http://www.w3.org/2000/svg"
   xmlns="http://www.w3.org/2000/svg"
   xmlns:sodipodi="http://sodipodi.sourceforge.net/DTD/sodipodi-0.dtd"
   xmlns:inkscape="http://www.inkscape.org/namespaces/inkscape"
   version="1.1"
   x="0px"
   y="0px"
   viewBox="0 0 20 20"
   enable-background="new 0 0 1000 1000"
   xml:space="preserve"
   id="svg2"
   inkscape:version="0.91 r13725"
   sodipodi:docname="oracle.svg"
   width="20"
   height="20"><defs
     id="defs20" /><sodipodi:namedview
     pagecolor="#ffffff"
     bordercolor="#666666"
     borderopacity="1"
     objecttolerance="10"
     gridtolerance="10"
     guidetolerance="10"
     inkscape:pageopacity="0"
     inkscape:pageshadow="2"
     inkscape:window-width="1366"
     inkscape:window-height="663"
     id="namedview18"
     showgrid="false"
     inkscape:zoom="20.534043"
     inkscape:cx="29.306775"
     inkscape:cy="14.992751"
     inkscape:window-x="-8"
     inkscape:window-y="-8"
     inkscape:window-maximized="1"
     inkscape:current-layer="svg2" /><metadata
     id="metadata4"> Svg Vector Icons : http://www.onlinewebfonts.com/icon <rdf:RDF><cc:Work
     rdf:about=""><dc:format>image/svg+xml</dc:format><dc:type
       rdf:resource="http://purl.org/dc/dcmitype/StillImage" /><dc:title /></cc:Work></rdf:RDF></metadata><g
     id="g6"
     transform="matrix(0.01998936,0,0,0.01998936,0.22064359,0.17448234)"
     style="fill:#5e5e5e;fill-opacity:1"><path
       d="M 489.6,184.6 C 719.8,181.9 913.2,241.9 921.3,318.3 929.4,394.8 749,459.1 518.8,461.7 288.6,464.5 95.1,404.5 87.1,328 79,251.6 259.3,187.3 489.6,184.6 Z"
       id="path8"
       inkscape:connector-curvature="0"
       style="fill:#5e5e5e;fill-opacity:1" /><path
       d="m 87.1,501.5 c -0.4,-3.3 -0.4,-6.6 0,-9.8 l 0,-151.5 0.2,0 c -0.4,3.2 -0.3,6.4 0,9.7 8,76.5 201.5,136.4 431.7,133.8 220.3,-2.6 394.9,-61.5 402.5,-133.6 l 0,151.5 -0.3,0 C 913.8,573.7 739.1,632.8 518.7,635.4 288.6,637.9 95.1,578 87.1,501.5 l 0,0 z"
       id="path10"
       inkscape:connector-curvature="0"
       style="fill:#5e5e5e;fill-opacity:1" /><path
       d="m 87.1,678.8 c -0.4,-3.3 -0.4,-6.6 0,-9.8 l 0,-151.5 0.2,0 c -0.4,3.2 -0.3,6.5 0,9.7 8,76.5 201.5,136.4 431.7,133.8 220.3,-2.6 394.9,-61.6 402.5,-133.6 l 0,151.4 -0.3,0 C 913.9,751 739.2,810 518.8,812.6 288.6,815.2 95.2,755.3 87.1,678.8 l 0,0 z"
       id="path12"
       inkscape:connector-curvature="0"
       style="fill:#5e5e5e;fill-opacity:1" /><path
       d="m 87.1,856.1 c -0.4,-3.3 -0.4,-6.6 0,-9.8 l 0,-151.5 0.2,0 c -0.4,3.2 -0.3,6.5 0,9.7 8,76.5 201.5,136.4 431.7,133.8 220.3,-2.6 394.9,-61.5 402.5,-133.6 l 0,151.5 -0.3,0 C 913.8,928.4 739.1,987.4 518.7,990 288.6,992.6 95.2,932.6 87.1,856.1 Z"
       id="path14"
       inkscape:connector-curvature="0"
       style="fill:#5e5e5e;fill-opacity:1" /><path
       d="m 700.7,10 -17.7,0 0,116.2 83.1,0 11.3,-19 -76.6,0 0,-97.2 z m -242.4,5.8 -64.8,110.5 21.4,0 19.5,-33.4 41.8,0 11,-19 -41.8,0 22.8,-38.3 53.3,90.6 21.5,0 -65.4,-110.7 c -4,-7.2 -14.7,-7.2 -19.3,0.3 l 0,0 z M 584,29 l 74.3,0 11,-18.9 -85.8,0 c -29.9,0 -49.6,26 -49.6,58.1 0,32.1 19.7,58.1 49.6,58.1 l 72.6,-0.1 11.4,-18.8 -83.5,0 C 563.9,107.4 552.1,89.9 552.1,68.2 552.1,46.5 563.8,29 584,29 Z M 204.6,10 128,10 c -29.9,0 -49.5,26 -49.5,58.1 0,32.1 19.7,58.1 49.5,58.1 l 76.6,0 c 29.9,0 49.5,-26 49.5,-58.1 C 254.1,36 234.4,10 204.6,10 l 0,0 z m 0,97.3 -76.6,0 C 107.9,107.3 96.1,89.8 96.1,68.1 96.1,46.4 107.8,29 128,29 l 76.6,0 c 20.1,0 31.9,17.5 31.9,39.2 0,21.7 -11.8,39.1 -31.9,39.1 z m 592.2,-30 93.6,0 11.3,-19 -104.9,0 c 3,-16.8 14.1,-29.4 31.1,-29.4 l 74.4,0 11,-18.9 -85.8,0 C 797.6,10 778,36 778,68.1 c 0,32.1 19.7,58.1 49.5,58.1 l 72.6,-0.1 11.4,-18.8 -83.5,0 c -17.3,0 -28.3,-12.8 -31.2,-30 l 0,0 z M 354.9,79 C 372.6,79 387,63.6 387,44.5 387,25.5 372.6,10 354.9,10 l -90.2,0 0,116.2 19.8,0 0,-97.2 70.3,0 c 8,0 14.5,6.9 14.5,15.6 0,8.6 -6.5,15.6 -14.5,15.6 l -56.4,0 63.6,66 25.6,0 -45.5,-47 12.8,-0.2 z"
       id="path16"
       inkscape:connector-curvature="0"
       style="fill:#5e5e5e;fill-opacity:1" /></g></svg>