<?xml version="1.0" encoding="UTF-8" standalone="no"?>
<svg
   xmlns:dc="http://purl.org/dc/elements/1.1/"
   xmlns:cc="http://creativecommons.org/ns#"
   xmlns:rdf="http://www.w3.org/1999/02/22-rdf-syntax-ns#"
   xmlns:svg="http://www.w3.org/2000/svg"
   xmlns="http://www.w3.org/2000/svg"
   xmlns:sodipodi="http://sodipodi.sourceforge.net/DTD/sodipodi-0.dtd"
   xmlns:inkscape="http://www.inkscape.org/namespaces/inkscape"
   enable-background="new 0 0 24 24"
   height="20"
   id="Layer_1"
   version="1.1"
   viewBox="0 0 20 20"
   width="20"
   xml:space="preserve"
   inkscape:version="0.91 r13725"
   sodipodi:docname="server2.svg"><metadata
     id="metadata21"><rdf:RDF><cc:Work
         rdf:about=""><dc:format>image/svg+xml</dc:format><dc:type
           rdf:resource="http://purl.org/dc/dcmitype/StillImage" /><dc:title></dc:title></cc:Work></rdf:RDF></metadata><defs
     id="defs19" /><sodipodi:namedview
     pagecolor="#ffffff"
     bordercolor="#666666"
     borderopacity="1"
     objecttolerance="10"
     gridtolerance="10"
     guidetolerance="10"
     inkscape:pageopacity="0"
     inkscape:pageshadow="2"
     inkscape:window-width="1366"
     inkscape:window-height="663"
     id="namedview17"
     showgrid="false"
     inkscape:zoom="13.368518"
     inkscape:cx="2.452874"
     inkscape:cy="11.920748"
     inkscape:window-x="-8"
     inkscape:window-y="-8"
     inkscape:window-maximized="1"
     inkscape:current-layer="g3" /><g
     id="g3"
     transform="translate(0,-4)"><path
       d="m 19.035461,18.073255 -17.9216309,0 c -0.48877182,0 -0.81461967,0.325848 -0.81461967,0.81462 l 0,4.073098 c 0,0.488772 0.32584785,0.814619 0.81461967,0.814619 l 17.9216309,0 c 0.488772,0 0.81462,-0.325847 0.81462,-0.814619 l 0,-4.073098 c 0,-0.488772 -0.325848,-0.81462 -0.81462,-0.81462 z m -0.814619,4.073098 -16.2923923,0 0,-2.443859 16.2923923,0 0,2.443859 z"
       id="path5"
       style="fill:#ffffff"
       inkscape:connector-curvature="0" /><rect
       height="0.8146196"
       width="4.0730982"
       x="2.7430692"
       y="20.517115"
       id="rect7"
       style="fill:#ffffff" /><path
       d="m 19.035461,11.556298 -17.9216309,0 c -0.48877182,0 -0.81461967,0.325848 -0.81461967,0.814619 l 0,4.073099 c 0,0.488772 0.32584785,0.814619 0.81461967,0.814619 l 17.9216309,0 c 0.488772,0 0.81462,-0.325847 0.81462,-0.814619 l 0,-4.073099 c 0,-0.488771 -0.325848,-0.814619 -0.81462,-0.814619 z m -0.814619,4.073098 -16.2923923,0 0,-2.443859 16.2923923,0 0,2.443859 z"
       id="path9"
       style="fill:#ffffff"
       inkscape:connector-curvature="0" /><rect
       height="0.8146196"
       width="4.0730982"
       x="2.7430692"
       y="14.000156"
       id="rect11"
       style="fill:#ffffff" /><path
       d="m 19.035461,5.0393407 -17.9216309,0 c -0.48877182,0 -0.81461967,0.3258479 -0.81461967,0.8146196 l 0,4.0730982 c 0,0.4887715 0.32584785,0.8146195 0.81461967,0.8146195 l 17.9216309,0 c 0.488772,0 0.81462,-0.325848 0.81462,-0.8146195 l 0,-4.0730982 c 0,-0.4887717 -0.325848,-0.8146196 -0.81462,-0.8146196 z m -0.814619,4.0730981 -16.2923923,0 0,-2.4438588 16.2923923,0 0,2.4438588 z"
       id="path13"
       style="fill:#ffffff"
       inkscape:connector-curvature="0" /><rect
       height="0.8146196"
       width="4.0730982"
       x="2.7430692"
       y="7.4831996"
       id="rect15"
       style="fill:#ffffff" /></g></svg>