<?xml version="1.0" encoding="UTF-8" standalone="no"?>
<svg
   xmlns:dc="http://purl.org/dc/elements/1.1/"
   xmlns:cc="http://creativecommons.org/ns#"
   xmlns:rdf="http://www.w3.org/1999/02/22-rdf-syntax-ns#"
   xmlns:svg="http://www.w3.org/2000/svg"
   xmlns="http://www.w3.org/2000/svg"
   xmlns:sodipodi="http://sodipodi.sourceforge.net/DTD/sodipodi-0.dtd"
   xmlns:inkscape="http://www.inkscape.org/namespaces/inkscape"
   version="1.1"
   x="0px"
   y="0px"
   viewBox="0 0 20 20"
   enable-background="new 0 0 1000 1000"
   xml:space="preserve"
   id="svg2"
   inkscape:version="0.91 r13725"
   sodipodi:docname="tomcat-dark.svg"
   width="20"
   height="20"><defs
     id="defs68" /><sodipodi:namedview
     pagecolor="#ffffff"
     bordercolor="#666666"
     borderopacity="1"
     objecttolerance="10"
     gridtolerance="10"
     guidetolerance="10"
     inkscape:pageopacity="0"
     inkscape:pageshadow="2"
     inkscape:window-width="1366"
     inkscape:window-height="663"
     id="namedview66"
     showgrid="false"
     inkscape:zoom="29.039523"
     inkscape:cx="9.6004176"
     inkscape:cy="9.4680058"
     inkscape:window-x="-8"
     inkscape:window-y="-8"
     inkscape:window-maximized="1"
     inkscape:current-layer="svg2" /><metadata
     id="metadata4"> Svg Vector Icons : http://www.onlinewebfonts.com/icon <rdf:RDF><cc:Work
     rdf:about=""><dc:format>image/svg+xml</dc:format><dc:type
       rdf:resource="http://purl.org/dc/dcmitype/StillImage" /><dc:title></dc:title></cc:Work></rdf:RDF></metadata><g
     id="g6"
     transform="matrix(0.01948922,0,0,0.01948922,0.35139759,0.14089932)"
     style="fill:#666666;fill-opacity:1"><path
       d="m 82.3,329 0,0 0.3,-0.1 -0.3,0.1 z"
       id="path8"
       inkscape:connector-curvature="0"
       style="fill:#666666;fill-opacity:1" /><path
       d="m 85.6,310.5 -0.5,-0.3 0.2,0.2 0.3,0.1 z"
       id="path10"
       inkscape:connector-curvature="0"
       style="fill:#666666;fill-opacity:1" /><path
       d="m 343.2,410.1 0,0 -0.1,-0.3 0.1,0.3 z"
       id="path12"
       inkscape:connector-curvature="0"
       style="fill:#666666;fill-opacity:1" /><path
       d="m 354,407 0,0 0,-0.3 0,0.3 z"
       id="path14"
       inkscape:connector-curvature="0"
       style="fill:#666666;fill-opacity:1" /><path
       d="m 363.1,407.9 0,0 0,-0.3 0,0.3 z"
       id="path16"
       inkscape:connector-curvature="0"
       style="fill:#666666;fill-opacity:1" /><path
       d="m 419.1,393.9 -0.2,0.2 0.3,0 -0.1,-0.2 0,0 z"
       id="path18"
       inkscape:connector-curvature="0"
       style="fill:#666666;fill-opacity:1" /><path
       d="m 418.4,392.7 0,0 -0.2,-0.1 -0.1,0.3 0.3,-0.2 z"
       id="path20"
       inkscape:connector-curvature="0"
       style="fill:#666666;fill-opacity:1" /><path
       d="m 392.9,376 0,0 -0.1,0.3 0.1,-0.3 z"
       id="path22"
       inkscape:connector-curvature="0"
       style="fill:#666666;fill-opacity:1" /><path
       d="m 402.8,381 0,0 -0.2,0.2 0.2,-0.2 z"
       id="path24"
       inkscape:connector-curvature="0"
       style="fill:#666666;fill-opacity:1" /><path
       d="m 417.7,391 0,-0.1 -0.3,0.1 0.3,0 z"
       id="path26"
       inkscape:connector-curvature="0"
       style="fill:#666666;fill-opacity:1" /><path
       d="m 86.6,359.8 0,0 0.3,0 -0.3,0 z"
       id="path28"
       inkscape:connector-curvature="0"
       style="fill:#666666;fill-opacity:1" /><path
       d="m 136.6,390.1 0,0 0.1,-0.3 -0.1,0.3 z"
       id="path30"
       inkscape:connector-curvature="0"
       style="fill:#666666;fill-opacity:1" /><path
       d="m 160.9,396.7 0,0 0.1,-0.3 -0.1,0.3 z"
       id="path32"
       inkscape:connector-curvature="0"
       style="fill:#666666;fill-opacity:1" /><path
       d="m 219,403.8 0,0 0.1,-0.3 -0.1,0.3 z"
       id="path34"
       inkscape:connector-curvature="0"
       style="fill:#666666;fill-opacity:1" /><path
       d="m 275.4,410.9 0,0 0.1,-0.3 -0.1,0.3 z"
       id="path36"
       inkscape:connector-curvature="0"
       style="fill:#666666;fill-opacity:1" /><path
       d="m 288.1,410.2 0,0 0.1,-0.3 -0.1,0.3 z"
       id="path38"
       inkscape:connector-curvature="0"
       style="fill:#666666;fill-opacity:1" /><path
       d="m 98.3,316 0,0 0.2,0.2 -0.2,-0.2 z"
       id="path40"
       inkscape:connector-curvature="0"
       style="fill:#666666;fill-opacity:1" /><path
       d="m 221.1,339 0,0 0,0.3 0,-0.3 z"
       id="path42"
       inkscape:connector-curvature="0"
       style="fill:#666666;fill-opacity:1" /><path
       d="m 66.2,355.1 0,0 -0.1,-0.3 0.1,0.3 z"
       id="path44"
       inkscape:connector-curvature="0"
       style="fill:#666666;fill-opacity:1" /><path
       d="m 59.5,355.3 -0.9,0.5 1,0 0,-0.3 -0.1,-0.2 z"
       id="path46"
       inkscape:connector-curvature="0"
       style="fill:#666666;fill-opacity:1" /><path
       d="m 88.6,311.4 0,0 -0.2,0.2 0.2,-0.2 z"
       id="path48"
       inkscape:connector-curvature="0"
       style="fill:#666666;fill-opacity:1" /><path
       d="m 77,306.6 0,-0.6 -0.4,0.4 0.2,0.2 0.2,0 z"
       id="path50"
       inkscape:connector-curvature="0"
       style="fill:#666666;fill-opacity:1" /><path
       d="m 89.9,310.5 0,0 0.2,0.2 -0.2,-0.2 z"
       id="path52"
       inkscape:connector-curvature="0"
       style="fill:#666666;fill-opacity:1" /><path
       d="m 62,340.8 -0.2,0.5 0.2,-0.3 0,-0.2 z"
       id="path54"
       inkscape:connector-curvature="0"
       style="fill:#666666;fill-opacity:1" /><path
       d="m 55,356.1 0.5,0.3 -0.3,-0.2 -0.2,-0.1 z"
       id="path56"
       inkscape:connector-curvature="0"
       style="fill:#666666;fill-opacity:1" /><path
       d="m 65.9,356.2 0,0 0.2,0.2 -0.2,-0.2 z"
       id="path58"
       inkscape:connector-curvature="0"
       style="fill:#666666;fill-opacity:1" /><path
       d="m 65.9,364.2 0.2,0.6 0.3,-0.6 -0.3,-0.1 -0.2,0.1 z"
       id="path60"
       inkscape:connector-curvature="0"
       style="fill:#666666;fill-opacity:1" /><path
       d="m 64.8,360.1 0,0 0.3,0 -0.3,0 z"
       id="path62"
       inkscape:connector-curvature="0"
       style="fill:#666666;fill-opacity:1" /><path
       d="M 975.5,806 C 956.9,785.2 920.4,775.3 890,776 870.5,752.7 766.6,643 746.7,622 c 43,-30.2 80.2,-69.4 108.8,-115.9 l 57.1,0 0,-12.2 -49.7,0 c 3.2,-5.6 6.1,-11.3 9,-17.1 l 40.6,0 0,-12.2 -34.8,0 c 25.8,-55.6 40.1,-119.4 38.7,-189.3 0,0 0.1,0.1 0.1,0.1 -0.1,-19.1 -6,-99.9 -17,-122.2 -29.6,11.3 -83.6,47.8 -95.8,85.2 -58.5,-8.7 -124.5,-7.7 -182.2,2.3 -9.6,-40.2 -58.1,-71 -94.6,-88.3 -15.4,26 -22.2,86.4 -20.5,129.2 -0.1,0 -0.1,0.1 -0.2,0.1 1.5,38.8 6.9,74.2 15.4,106.9 -126.5,31.3 -264.2,114.2 -341.2,194.3 -36,-48.7 -50.3,-88.6 -54.6,-118.9 -5.4,-38.2 3.8,-73.3 26.4,-101.4 35.4,-44 85.7,-47.1 137.4,-38.4 -1,8.2 0.1,16 3.3,20.8 13.7,20.2 87.2,27.3 131.1,7.7 -32.4,-45.4 -98,-67.6 -116.1,-58.7 -6,2.9 -10.6,8.3 -13.7,14.6 -17.9,-3.2 -35.6,-5.6 -48.6,-5.5 -45.6,0.5 -80.5,16.4 -106.6,48.9 -25.6,31.9 -36,71.4 -29.9,114.4 5.7,40.7 25.9,84 59.6,128.9 -5.6,6 -11,12 -16.2,17.8 C 70.1,705.3 10,804.1 10,820.5 l 0,8.5 108.5,0 -1.9,-10.1 c -6.1,-32.4 6.1,-73 31.2,-103.3 15.7,-19 41.8,-40.7 82.7,-50.7 36.4,35.6 82.8,73.3 134.4,109.8 l 80.7,0 0,-8.5 c 0,-9.6 -4.7,-18 -13.4,-23.6 -12.7,-8.3 -32.4,-9.5 -50.5,-3.3 -17.2,-19.2 -26.9,-44.9 -29,-76.7 175.1,15.5 342.5,86.3 531.4,185.1 l 104,0 1.4,-6.8 c 2,-9.8 -3.2,-22.8 -14,-34.9 z"
       id="path64"
       inkscape:connector-curvature="0"
       style="fill:#666666;fill-opacity:1" /></g></svg>